<?xml version="1.0" encoding="UTF-8" standalone="no"?>
<!-- Created with Inkscape (http://www.inkscape.org/) -->

<svg
   width="290.13409mm"
   height="321.7851mm"
   viewBox="0 0 290.13409 321.7851"
   version="1.1"
   id="svg1"
   xml:space="preserve"
   inkscape:version="1.4.2 (ebf0e940, 2025-05-08)"
   sodipodi:docname="all_icons.svg"
   xmlns:inkscape="http://www.inkscape.org/namespaces/inkscape"
   xmlns:sodipodi="http://sodipodi.sourceforge.net/DTD/sodipodi-0.dtd"
   xmlns="http://www.w3.org/2000/svg"
   xmlns:svg="http://www.w3.org/2000/svg"><sodipodi:namedview
     id="namedview1"
     pagecolor="#ffffff"
     bordercolor="#000000"
     borderopacity="0.25"
     inkscape:showpageshadow="2"
     inkscape:pageopacity="0.0"
     inkscape:pagecheckerboard="0"
     inkscape:deskcolor="#d1d1d1"
     inkscape:document-units="mm"
     inkscape:zoom="0.40125123"
     inkscape:cx="264.17365"
     inkscape:cy="558.25374"
     inkscape:window-width="1440"
     inkscape:window-height="775"
     inkscape:window-x="0"
     inkscape:window-y="25"
     inkscape:window-maximized="1"
     inkscape:current-layer="layer1" /><defs
     id="defs1"><clipPath
       clipPathUnits="userSpaceOnUse"
       id="clipPath69"><rect
         style="fill:none"
         id="rect70"
         width="370.92957"
         height="398.33817"
         x="137.04294"
         y="80.398529" /></clipPath><clipPath
       clipPathUnits="userSpaceOnUse"
       id="clipPath70"><rect
         style="fill:none"
         id="rect71"
         width="370.92957"
         height="398.33817"
         x="137.04294"
         y="80.398529" /></clipPath></defs><g
     inkscape:label="snap"
     inkscape:groupmode="layer"
     id="layer1"
     transform="translate(25.057035,12.528518)"><g
       style="clip-rule:evenodd;fill-rule:evenodd;image-rendering:optimizeQuality;shape-rendering:geometricPrecision;text-rendering:geometricPrecision"
       id="g1"
       transform="matrix(0.26458333,0,0,0.26458333,73.342233,-4.204519)"
       inkscape:label="snap"><g
         id="g19"
         transform="translate(-137.04294,-69.435089)"><path
           style="opacity:1"
           fill="#3b251e"
           d="m 381.5,99.5 c 21.206,-0.2955 32.206,10.205 33,31.5 0.183,7.92 -1.484,15.42 -5,22.5 0.667,0.333 1.333,0.667 2,1 11.29,-3.602 21.957,-2.435 32,3.5 10.059,11.008 10.559,22.508 1.5,34.5 -9.003,10.09 -19.837,17.59 -32.5,22.5 -12.289,4.873 -24.622,9.539 -37,14 17.37,19.036 20.87,40.536 10.5,64.5 -9.025,18.67 -20.025,36.004 -33,52 -20.015,25.357 -41.515,49.523 -64.5,72.5 -12.761,11.874 -26.428,22.541 -41,32 -33.855,16.381 -50.188,5.548 -49,-32.5 0.552,-20.313 3.385,-40.313 8.5,-60 8.593,-35.777 19.593,-70.777 33,-105 4.905,-10.815 10.572,-21.148 17,-31 13.512,-17.295 31.345,-25.128 53.5,-23.5 -6.088,-12.263 -10.588,-25.096 -13.5,-38.5 -3.095,-13.037 0.072,-24.204 9.5,-33.5 16.129,-7.411 29.962,-4.245 41.5,9.5 5.217,-17.711 16.384,-29.711 33.5,-36 z"
           id="path19" /></g><g
         id="g20"
         transform="translate(-137.04294,-69.435089)"><path
           style="opacity:1"
           fill="#40281e"
           d="m 225.5,335.5 c 0.172,0.992 -0.162,1.658 -1,2 -1.945,4.034 -3.612,8.867 -5,14.5 -1.534,3.034 -3.868,5.201 -7,6.5 -1.602,-1.101 -2.602,-2.601 -3,-4.5 1.776,-8.273 3.943,-16.439 6.5,-24.5 1.786,1.599 3.953,2.433 6.5,2.5 -1.333,0.333 -2.667,0.667 -4,1 1.941,0.743 3.774,0.576 5.5,-0.5 0.232,1.237 0.732,2.237 1.5,3 z"
           id="path20" /></g><g
         id="g21"
         clip-path="url(#clipPath70)"
         transform="translate(-137.04294,-69.435089)"><path
           style="opacity:1"
           fill="#fe9c1d"
           d="m 224.5,337.5 c 0.838,-0.342 1.172,-1.008 1,-2 0.318,-2.805 1.485,-5.139 3.5,-7 8.62,2.893 16.786,6.727 24.5,11.5 6.608,0.336 9.108,-2.831 7.5,-9.5 -8.413,-5.956 -17.58,-10.456 -27.5,-13.5 -1.016,-0.519 -1.682,-1.353 -2,-2.5 6.019,-20.726 13.019,-41.059 21,-61 13.892,2.111 26.559,7.278 38,15.5 5.516,1.925 8.849,0.091 10,-5.5 -0.348,-2.197 -1.348,-4.03 -3,-5.5 -11.927,-7.296 -24.594,-12.963 -38,-17 16.629,-29.768 40.962,-38.101 73,-25 14.973,5.736 27.807,14.569 38.5,26.5 7.642,11.667 9.642,24.334 6,38 -7.604,19.883 -18.27,37.883 -32,54 -11.164,-9.81 -23.831,-17.143 -38,-22 -5.138,1.476 -6.805,4.81 -5,10 0.833,0.833 1.667,1.667 2.5,2.5 11.393,3.861 21.726,9.527 31,17 1.507,0.837 2.007,2.004 1.5,3.5 -14.924,18.261 -30.59,35.928 -47,53 -7.621,-6.283 -15.787,-11.783 -24.5,-16.5 -7.028,-0.459 -9.362,2.708 -7,9.5 7.637,4.978 14.97,10.312 22,16 -14.869,17.039 -32.869,29.539 -54,37.5 -4.329,1.151 -8.162,0.318 -11.5,-2.5 -1.725,-3.174 -3.058,-6.507 -4,-10 -0.808,-12.035 -0.475,-24.035 1,-36 3.21,-19.883 7.377,-39.55 12.5,-59 z"
           id="path21" /></g><g
         id="g22"
         clip-path="url(#clipPath69)"
         transform="translate(-137.04294,-69.435089)"><path
           style="opacity:1"
           fill="#87a83a"
           d="m 381.5,112.5 c 13.334,-1.172 20.334,4.994 21,18.5 -0.689,8.4 -3.189,16.233 -7.5,23.5 -6.182,9.027 -12.849,17.694 -20,26 -0.448,6.875 2.718,9.375 9.5,7.5 5.686,-6.351 12.019,-12.017 19,-17 9.444,-5.424 19.444,-7.091 30,-5 5.175,4.199 6.341,9.365 3.5,15.5 -4.474,6.172 -9.974,11.339 -16.5,15.5 -17.951,9.039 -36.617,16.206 -56,21.5 -12.354,-7.343 -25.354,-13.343 -39,-18 -7.786,-14.526 -13.286,-29.859 -16.5,-46 -1.845,-16.164 4.988,-22.331 20.5,-18.5 4.219,2.552 7.386,6.052 9.5,10.5 2.301,7.259 4.134,14.593 5.5,22 2.367,1.895 5.034,2.395 8,1.5 1.833,-0.5 3,-1.667 3.5,-3.5 -1.304,-19.435 4.863,-35.935 18.5,-49.5 2.398,-1.524 4.731,-3.024 7,-4.5 z"
           id="path22" /></g><rect
         style="fill:none"
         id="rect68"
         width="425.74673"
         height="425.74673"
         x="-36.544777"
         y="0" /><rect
         style="fill:none"
         id="rect72"
         width="407.47437"
         height="409.30157"
         x="-9.1361847"
         y="9.1362" /><rect
         style="fill:none"
         id="rect73"
         width="356.31165"
         height="420.26501"
         x="0"
         y="0" /></g><g
       style="clip-rule:evenodd;fill-rule:evenodd;image-rendering:optimizeQuality;shape-rendering:geometricPrecision;text-rendering:geometricPrecision"
       id="g3"
       transform="matrix(0.26458333,0,0,0.26458333,131.92131,178.55675)"
       inkscape:label="liheap"><g
         id="g31"
         transform="translate(-87.707481,-520.76318)"><path
           style="opacity:1"
           fill="#3a241e"
           d="m 247.5,576.5 c 5.031,-0.32 9.697,0.847 14,3.5 41.54,23.237 61.707,58.737 60.5,106.5 -2.02,10.767 -3.52,21.6 -4.5,32.5 -1.296,6.397 0.704,11.397 6,15 6.054,0.726 10.888,-1.441 14.5,-6.5 2.377,-3.588 4.877,-7.088 7.5,-10.5 2.667,-2 5.333,-2 8,0 4.045,4.582 7.211,9.749 9.5,15.5 10.883,27.242 11.216,54.576 1,82 -21.25,39.644 -54.583,59.644 -100,60 -39.278,-1.463 -69.611,-18.463 -91,-51 -19.782,-41.86 -14.782,-80.527 15,-116 18.162,-18.154 34.829,-37.487 50,-58 12.317,-21.058 14.484,-43.058 6.5,-66 0.167,-1.333 0.333,-2.667 0.5,-4 1.045,-0.873 1.878,-1.873 2.5,-3 z"
           id="path31" /></g><g
         id="g32"
         transform="translate(-87.707481,-520.76318)"><path
           style="opacity:1"
           fill="#5fa5e6"
           d="m 419.5,721.5 c -0.06,-0.543 -0.393,-0.876 -1,-1 -1.326,14.828 -1.326,29.495 0,44 6.937,7.438 14.103,14.771 21.5,22 0.997,7.333 -2.17,10.166 -9.5,8.5 -4.182,-4.015 -8.182,-8.182 -12,-12.5 -0.831,7.645 -1.331,15.312 -1.5,23 -0.758,2.41 -2.425,3.41 -5,3 -2.667,0.333 -4.667,-0.667 -6,-3 -0.169,-7.688 -0.669,-15.355 -1.5,-23 -3.818,4.318 -7.818,8.485 -12,12.5 -7.33,1.666 -10.497,-1.167 -9.5,-8.5 7.333,-7.333 14.667,-14.667 22,-22 0.833,-14.345 0.666,-28.678 -0.5,-43 -9.836,6.086 -19.836,11.919 -30,17.5 -6.305,-0.006 -8.471,-3.172 -6.5,-9.5 9.899,-6.895 20.065,-13.395 30.5,-19.5 -11.585,-7.249 -23.418,-14.082 -35.5,-20.5 -8.803,2.768 -17.637,5.434 -26.5,8 -3.901,-0.401 -5.901,-2.568 -6,-6.5 0.143,-2.151 1.143,-3.818 3,-5 4.967,-1.933 9.967,-3.767 15,-5.5 -5.87,-3.7 -11.87,-7.2 -18,-10.5 -4.28,-5.308 -3.113,-9.141 3.5,-11.5 6.949,3.449 13.783,7.115 20.5,11 0.333,-0.333 0.667,-0.667 1,-1 -2.559,-5.119 -4.559,-10.452 -6,-16 2.208,-6.745 6.041,-7.745 11.5,-3 3.47,10.077 7.137,20.077 11,30 10.915,6.207 21.749,12.541 32.5,19 1.166,-15.322 1.333,-30.656 0.5,-46 -7,-7 -14,-14 -21,-21 -2.966,-6.923 -0.799,-10.423 6.5,-10.5 5.134,4.133 9.968,8.633 14.5,13.5 0.333,-8 0.667,-16 1,-24 3.667,-4 7.333,-4 11,0 0.169,7.688 0.669,15.355 1.5,23 4.485,-3.985 8.818,-8.151 13,-12.5 7.285,-0.962 10.118,2.205 8.5,9.5 -7.333,7.333 -14.667,14.667 -22,22 -0.5,15.33 -0.667,30.663 -0.5,46 12.057,-5.865 23.724,-12.532 35,-20 3.462,-8.887 6.629,-17.887 9.5,-27 2.942,-5.492 6.609,-6.158 11,-2 0.167,1.167 0.333,2.333 0.5,3.5 -1.536,5.921 -3.036,11.754 -4.5,17.5 6.085,-3.627 12.252,-7.127 18.5,-10.5 5.301,-1.69 8.301,0.143 9,5.5 0.063,1.981 -0.604,3.648 -2,5 -6.542,3.702 -13.209,7.202 -20,10.5 6.135,2.454 12.468,4.454 19,6 4,3.667 4,7.333 0,11 -10.551,-1.066 -20.884,-3.399 -31,-7 -2,-0.667 -4,-0.667 -6,0 -10.5,6.082 -20.834,12.416 -31,19 11.667,6.833 23.333,13.667 35,20.5 10.807,-3.196 21.807,-5.029 33,-5.5 3.557,3.182 3.891,6.682 1,10.5 -5.981,1.607 -11.981,3.107 -18,4.5 6.768,3.772 13.268,7.939 19.5,12.5 1.833,7.5 -1,10.333 -8.5,8.5 -5.75,-3.626 -11.584,-7.126 -17.5,-10.5 0.692,4.754 2.025,9.421 4,14 1.167,6.833 -1.667,9.667 -8.5,8.5 -1.201,-0.903 -2.035,-2.069 -2.5,-3.5 -3.333,-9.333 -6.667,-18.667 -10,-28 -11.112,-6.804 -22.278,-13.471 -33.5,-20 z"
           id="path32" /></g><g
         id="g33"
         transform="translate(-87.707481,-520.76318)"><path
           style="opacity:1"
           fill="#bcd5ee"
           d="m 419.5,721.5 c -0.996,14.157 -1.329,28.49 -1,43 -1.326,-14.505 -1.326,-29.172 0,-44 0.607,0.124 0.94,0.457 1,1 z"
           id="path33" /></g><g
         id="g35"
         transform="translate(-87.707481,-520.76318)"><path
           style="opacity:1"
           fill="#fdb521"
           d="m 260.5,754.5 c 2.321,13.446 7.488,25.78 15.5,37 7.639,8.3 13.639,17.634 18,28 3.602,16.621 -1.898,29.121 -16.5,37.5 -23.556,4.851 -40.056,-3.983 -49.5,-26.5 -5.542,-20.497 -1.875,-39.163 11,-56 6.762,-7.267 13.928,-13.934 21.5,-20 z"
           id="path35" /></g><g
         id="g36"
         transform="translate(-87.707481,-520.76318)"><path
           style="opacity:1"
           fill="#fe9c1d"
           d="m 273.5,757.5 c -0.271,-8.036 0.062,-16.036 1,-24 -1.779,-5.867 -5.445,-7.367 -11,-4.5 -2.646,2.802 -4.646,5.968 -6,9.5 -9.325,9.825 -18.825,19.492 -28.5,29 -17.805,24.635 -20.138,50.635 -7,78 1.977,2.812 4.144,5.478 6.5,8 -21.328,-7.328 -37.161,-21.328 -47.5,-42 -3.247,-7.901 -5.747,-15.901 -7.5,-24 -0.646,-11.838 0.354,-23.505 3,-35 5.305,-15.601 13.471,-29.601 24.5,-42 17.864,-16.854 33.864,-35.187 48,-55 10.934,-19.882 14.768,-40.882 11.5,-63 30.301,19.687 46.968,47.687 50,84 -1.545,14.855 -3.211,29.689 -5,44.5 -0.774,15.224 6.393,23.724 21.5,25.5 9.816,-1.077 17.483,-5.744 23,-14 18.924,40.79 12.091,76.623 -20.5,107.5 -9,7.167 -19,12.167 -30,15 9.968,-16.575 10.468,-33.408 1.5,-50.5 -7,-9.667 -14,-19.333 -21,-29 -3.095,-5.794 -5.261,-11.794 -6.5,-18 z"
           id="path36" /></g><g
         id="g37"
         transform="translate(-87.707481,-520.76318)"><path
           style="opacity:1"
           fill="#1f1421"
           d="m 273.5,757.5 c -0.845,-8.253 -1.345,-17.253 -1.5,-27 -2.373,-2.35 -4.873,-2.517 -7.5,-0.5 -2.198,3.023 -4.531,5.856 -7,8.5 1.354,-3.532 3.354,-6.698 6,-9.5 5.555,-2.867 9.221,-1.367 11,4.5 -0.938,7.964 -1.271,15.964 -1,24 z"
           id="path37" /></g><g
         id="g38"
         transform="translate(-87.707481,-520.76318)"><path
           style="opacity:1"
           fill="#160e1e"
           d="m 176.5,752.5 c -2.646,11.495 -3.646,23.162 -3,35 -1.152,-7.251 -1.318,-15.251 -0.5,-24 0.512,-4.577 1.679,-8.244 3.5,-11 z"
           id="path38" /></g><rect
         style="fill:none"
         id="rect76"
         width="462.2915"
         height="380.0658"
         x="0"
         y="0" /></g><g
       style="clip-rule:evenodd;fill-rule:evenodd;image-rendering:optimizeQuality;shape-rendering:geometricPrecision;text-rendering:geometricPrecision"
       id="g4"
       transform="matrix(0.26458333,0,0,0.26458333,-25.435537,80.747376)"
       inkscape:label="medic"><g
         id="g62"
         transform="translate(-599.33447,-520.76318)"><path
           style="opacity:1"
           fill="#3a241d"
           d="m 698.5,562.5 c 9.543,-1.158 18.043,1.176 25.5,7 8.985,13.728 6.818,25.228 -6.5,34.5 -12.328,4.916 -23.161,2.75 -32.5,-6.5 -1.504,-3.009 -3.004,-6.009 -4.5,-9 -15.727,2.56 -25.56,11.56 -29.5,27 -1.411,17.441 1.589,34.108 9,50 4.779,12.224 10.612,23.891 17.5,35 2.362,0.771 4.696,1.605 7,2.5 8.333,13.667 19.333,24.667 33,33 19.146,8.088 37.813,7.088 56,-3 5.791,-4.122 11.291,-8.622 16.5,-13.5 4.167,-5.5 8.333,-11 12.5,-16.5 2.215,-1.044 4.548,-1.71 7,-2 10.794,-18.754 18.961,-38.588 24.5,-59.5 1.419,-8.625 1.752,-17.292 1,-26 -3.814,-14.98 -13.314,-23.98 -28.5,-27 -0.942,0.108 -1.775,0.441 -2.5,1 -3.386,11.625 -11.219,17.292 -23.5,17 -17.82,-0.985 -25.654,-10.318 -23.5,-28 5.3,-12.571 14.8,-17.738 28.5,-15.5 7.556,1.282 13.223,5.282 17,12 29.692,3.854 44.692,20.687 45,50.5 -0.219,17.492 -4.052,34.158 -11.5,50 -4.512,10.525 -9.679,20.692 -15.5,30.5 3.81,5.009 3.977,10.176 0.5,15.5 -9.772,14.105 -21.272,26.605 -34.5,37.5 -11.932,8.8 -25.265,13.967 -40,15.5 -0.167,20.336 0,40.669 0.5,61 1.105,29.403 15.605,48.57 43.5,57.5 24.099,5.438 44.266,-1.062 60.5,-19.5 8.183,-12.064 12.017,-25.397 11.5,-40 -22.021,-3.519 -35.521,-16.186 -40.5,-38 -1.952,-27.372 10.214,-44.872 36.5,-52.5 32.688,-3.006 51.355,11.661 56,44 -1.492,25.496 -14.659,41.329 -39.5,47.5 -0.739,41.064 -21.239,65.231 -61.5,72.5 -44.314,1.26 -70.481,-19.906 -78.5,-63.5 -0.5,-23.331 -0.667,-46.664 -0.5,-70 -12.869,-2.434 -24.535,-7.601 -35,-15.5 -13.666,-10.994 -25.166,-23.827 -34.5,-38.5 -0.978,-4.4 -0.478,-8.567 1.5,-12.5 -11.76,-20.274 -20.593,-41.774 -26.5,-64.5 -4.191,-17.881 -1.525,-34.547 8,-50 9.351,-9.925 20.851,-15.425 34.5,-16.5 3.397,-6.905 8.731,-11.405 16,-13.5 z"
           id="path62" /></g><g
         id="g63"
         transform="translate(-599.33447,-520.76318)"><path
           style="opacity:1"
           fill="#7fb7d7"
           d="m 862.5,754.5 c 19.043,-1.109 31.876,7.224 38.5,25 3.126,21.6 -5.707,35.433 -26.5,41.5 -20.492,2.009 -33.658,-6.825 -39.5,-26.5 -1.97,-21.076 7.196,-34.409 27.5,-40 z"
           id="path63" /></g><g
         id="g64"
         transform="translate(-599.33447,-520.76318)"><path
           style="opacity:1"
           fill="#3d241d"
           d="m 861.5,769.5 c 12.486,-2.18 20.986,2.486 25.5,14 0.988,16.012 -6.512,23.845 -22.5,23.5 -12.029,-3.21 -17.196,-11.043 -15.5,-23.5 2.124,-6.643 6.291,-11.31 12.5,-14 z"
           id="path64" /></g><g
         id="g65"
         transform="translate(-599.33447,-520.76318)"><path
           style="opacity:1"
           fill="#5698d2"
           d="m 864.5,781.5 c 7.828,-1.007 10.994,2.326 9.5,10 -4,5.333 -8,5.333 -12,0 -1.139,-3.921 -0.305,-7.254 2.5,-10 z"
           id="path65" /></g><g
         id="g66"
         transform="translate(-599.33447,-520.76318)"><path
           style="opacity:1"
           fill="#7c7677"
           d="m 676.5,715.5 c 0.397,-1.025 1.063,-1.192 2,-0.5 25.233,37.858 58.566,47.524 100,29 11.459,-7.792 21.292,-17.292 29.5,-28.5 0.718,-0.951 1.551,-1.117 2.5,-0.5 -44.53,63.116 -89.197,63.283 -134,0.5 z"
           id="path66" /></g><g
         id="g67"
         transform="translate(-599.33447,-520.76318)"><path
           style="opacity:1"
           fill="#f1bf82"
           d="m 699.5,575.5 c 5.277,-0.569 10.277,0.265 15,2.5 4.84,6.621 3.506,11.621 -4,15 -6.509,1.759 -12.009,0.259 -16.5,-4.5 -0.667,-2.667 -0.667,-5.333 0,-8 1.73,-1.902 3.563,-3.569 5.5,-5 z"
           id="path67" /></g><g
         id="g68"
         transform="translate(-599.33447,-520.76318)"><path
           style="opacity:1"
           fill="#f1bd81"
           d="m 774.5,575.5 c 5.277,-0.569 10.277,0.265 15,2.5 4.835,6.665 3.501,11.665 -4,15 -4.456,0.867 -8.789,0.534 -13,-1 -5.701,-6.289 -5.035,-11.789 2,-16.5 z"
           id="path68" /></g><rect
         style="fill:none"
         id="rect77"
         width="350.82993"
         height="416.61053"
         x="0"
         y="0" /></g><g
       style="clip-rule:evenodd;fill-rule:evenodd;image-rendering:optimizeQuality;shape-rendering:geometricPrecision;text-rendering:geometricPrecision"
       id="g5"
       transform="matrix(0.26458333,0,0,0.26458333,2.4594453,197.01832)"
       inkscape:label="tanf"><g
         id="g34"
         transform="translate(-1004.9816,-564.61694)"><path
           style="opacity:1"
           fill="#220e07"
           d="m 1058.5,629.5 c 56.5,-0.667 113.17,-1 170,-1 57.41,-0.163 114.75,0.337 172,1.5 1.54,1.579 2.71,3.413 3.5,5.5 0.67,64.333 0.67,128.667 0,193 -0.66,1.824 -1.83,3.157 -3.5,4 -0.04,-1.256 0.46,-2.256 1.5,-3 0.67,-65 0.67,-130 0,-195 -0.47,-1.431 -1.3,-2.597 -2.5,-3.5 -113.59,-1.496 -227.25,-1.996 -341,-1.5 z"
           id="path34" /></g><g
         id="g39"
         transform="translate(-1004.9816,-564.61694)"><path
           style="opacity:1"
           fill="#3f2920"
           d="m 1058.5,629.5 c 113.75,-0.496 227.41,0.004 341,1.5 1.2,0.903 2.03,2.069 2.5,3.5 0.67,65 0.67,130 0,195 -1.04,0.744 -1.54,1.744 -1.5,3 -114.29,1.163 -228.63,1.329 -343,0.5 -1.54,-1.77 -2.87,-2.937 -4,-3.5 -1.17,-64.832 -1.33,-129.832 -0.5,-195 1.08,-2.579 2.91,-4.246 5.5,-5 z"
           id="path39" /></g><g
         id="g40"
         transform="translate(-1004.9816,-564.61694)"><path
           style="opacity:1"
           fill="#9ede86"
           d="m 1391.5,640.5 c 1,60.498 1.33,121.164 1,182 -109,0 -218,0 -327,0 0,-60.667 0,-121.333 0,-182 108.67,0 217.33,0 326,0 z"
           id="path40" /></g><g
         id="g41"
         transform="translate(-1004.9816,-564.61694)"><path
           style="opacity:1"
           fill="#8dbc73"
           d="m 1066.5,641.5 c 108,0 216,0 324,0 0,60 0,120 0,180 -108,0 -216,0 -324,0 0,-60 0,-120 0,-180 z"
           id="path41" /></g><g
         id="g42"
         transform="translate(-1004.9816,-564.61694)"><path
           style="opacity:1"
           fill="#381717"
           d="m 1343.5,804.5 c -76.6,1.163 -153.26,1.33 -230,0.5 -0.83,-0.833 -1.67,-1.667 -2.5,-2.5 -0.25,-4.923 -1.42,-9.589 -3.5,-14 -0.07,-0.438 0.1,-0.772 0.5,-1 0.67,1.333 1.33,2.667 2,4 0.71,4.064 1.88,7.897 3.5,11.5 76.83,0.167 153.5,0.667 230,1.5 z"
           id="path42" /></g><g
         id="g43"
         transform="translate(-1004.9816,-564.61694)"><path
           style="opacity:1"
           fill="#9bdd83"
           d="m 1082.5,690.5 c -0.32,28.377 0.02,56.711 1,85 -0.62,-0.111 -1.12,-0.444 -1.5,-1 -0.83,-28.17 -0.66,-56.17 0.5,-84 z"
           id="path43" /></g><g
         id="g44"
         transform="translate(-1004.9816,-564.61694)"><path
           style="opacity:1"
           fill="#3e251e"
           d="m 1113.5,659.5 c 76.33,-0.167 152.67,0 229,0.5 1.2,0.903 2.03,2.069 2.5,3.5 0.46,-0.594 0.63,-1.261 0.5,-2 1.23,14.734 9.23,23.234 24,25.5 1.79,0.785 3.29,1.951 4.5,3.5 0.67,27.333 0.67,54.667 0,82 -0.47,1.431 -1.3,2.597 -2.5,3.5 -15.88,1.213 -24.38,9.713 -25.5,25.5 -0.38,1.442 -1.21,2.442 -2.5,3 -76.5,-0.833 -153.17,-1.333 -230,-1.5 -1.62,-3.603 -2.79,-7.436 -3.5,-11.5 -0.67,-1.333 -1.33,-2.667 -2,-4 -0.4,0.228 -0.57,0.562 -0.5,1 -6.05,-7.702 -14.05,-12.035 -24,-13 -0.98,-28.289 -1.32,-56.623 -1,-85 1.13,-0.622 2.13,-1.455 3,-2.5 15.36,-1.687 23.52,-10.187 24.5,-25.5 0.76,-1.563 1.93,-2.563 3.5,-3 z"
           id="path44" /></g><g
         id="g45"
         transform="translate(-1004.9816,-564.61694)"><path
           style="opacity:1"
           fill="#504d2e"
           d="m 1257.5,791.5 c 25.49,0.998 51.16,1.331 77,1 -25.84,1.329 -51.84,1.329 -78,0 0.12,-0.607 0.46,-0.94 1,-1 z"
           id="path45" /></g><g
         id="g46"
         transform="translate(-1004.9816,-564.61694)"><path
           style="opacity:1"
           fill="#514e2f"
           d="m 1199.5,791.5 c 0.54,0.06 0.88,0.393 1,1 -26.5,1.329 -52.83,1.329 -79,0 0.33,0 0.67,0 1,0 25.84,0.331 51.51,-0.002 77,-1 z"
           id="path46" /></g><g
         id="g47"
         transform="translate(-1004.9816,-564.61694)"><path
           style="opacity:1"
           fill="#82c85a"
           d="m 1334.5,788.5 c 0,1.333 0,2.667 0,4 -25.84,0.331 -51.51,-0.002 -77,-1 0.89,-0.61 1.89,-0.943 3,-1 24.16,0.998 48.49,1.331 73,1 -0.34,-2.048 -0.01,-3.048 1,-3 z"
           id="path47" /></g><g
         id="g48"
         transform="translate(-1004.9816,-564.61694)"><path
           style="opacity:1"
           fill="#81c85b"
           d="m 1197.5,790.5 c 0.67,0.333 1.33,0.667 2,1 -25.49,0.998 -51.16,1.331 -77,1 24.9,-0.676 49.9,-1.342 75,-2 z"
           id="path48" /></g><g
         id="g49"
         transform="translate(-1004.9816,-564.61694)"><path
           style="opacity:1"
           fill="#82c75b"
           d="m 1358.5,698.5 c 1,0 2,0 3,0 0,22.333 0,44.667 0,67 -2.06,0.017 -4.06,0.35 -6,1 -0.44,0.065 -0.77,-0.101 -1,-0.5 1.85,-1.128 3.85,-1.628 6,-1.5 0.64,-22.231 -0.03,-44.231 -2,-66 z"
           id="path49" /></g><g
         id="g50"
         transform="translate(-1004.9816,-564.61694)"><path
           style="opacity:1"
           fill="#81c459"
           d="m 1097.5,698.5 c 2.35,0.61 2.02,0.944 -1,1 -0.33,21.677 0,43.344 1,65 1.99,0.368 2.99,1.034 3,2 -1.43,0.079 -2.76,-0.254 -4,-1 -0.33,-11.167 -0.67,-22.333 -1,-33.5 0,-11.521 0.67,-22.687 2,-33.5 z"
           id="path50" /></g><g
         id="g51"
         transform="translate(-1004.9816,-564.61694)"><path
           style="opacity:1"
           fill="#74a24d"
           d="m 1197.5,790.5 c -25.1,0.658 -50.1,1.324 -75,2 -0.33,0 -0.67,0 -1,0 -1.12,-9.078 -5.46,-16.245 -13,-21.5 -2.89,-1.274 -5.56,-2.774 -8,-4.5 -0.01,-0.966 -1.01,-1.632 -3,-2 -1,-21.656 -1.33,-43.323 -1,-65 3.02,-0.056 3.35,-0.39 1,-1 13.92,-4.258 22.25,-13.591 25,-28 25.67,-0.167 51.34,0 77,0.5 -25.16,20.867 -33.99,47.367 -26.5,79.5 3.87,16.1 12.04,29.433 24.5,40 z"
           id="path51" /></g><g
         id="g52"
         transform="translate(-1004.9816,-564.61694)"><path
           style="opacity:1"
           fill="#3f251e"
           d="m 1126.5,713.5 c 15.19,-0.971 22.69,6.029 22.5,21 -2.84,11.176 -10.01,16.01 -21.5,14.5 -12.55,-5.661 -16.05,-14.827 -10.5,-27.5 2.77,-3.283 5.94,-5.95 9.5,-8 z"
           id="path52" /></g><g
         id="g53"
         transform="translate(-1004.9816,-564.61694)"><path
           style="opacity:1"
           fill="#74a34e"
           d="m 1224.5,673.5 c 25.5,2.985 41.66,16.985 48.5,42 5.44,27.371 -2.73,49.538 -24.5,66.5 -13.38,8.562 -26.71,8.562 -40,0 -22.99,-18.316 -30.83,-41.816 -23.5,-70.5 6.87,-19.373 20.04,-32.04 39.5,-38 z"
           id="path53" /></g><g
         id="g54"
         transform="translate(-1004.9816,-564.61694)"><path
           style="opacity:1"
           fill="#3e251e"
           d="m 1225.5,687.5 c 6.67,-0.667 9.67,2.333 9,9 10.46,1.619 14.96,7.619 13.5,18 -5.86,3.486 -10.03,1.986 -12.5,-4.5 -6.72,-2.851 -12.55,-1.685 -17.5,3.5 -1.99,5.792 -0.16,9.625 5.5,11.5 22.72,0.619 30.88,11.785 24.5,33.5 -3.1,5.132 -7.6,8.132 -13.5,9 -0.14,7.298 -3.64,9.632 -10.5,7 -1.2,-2.177 -1.7,-4.511 -1.5,-7 -9.84,-0.667 -15.84,-5.834 -18,-15.5 0.56,-5.553 3.56,-7.553 9,-6 2.22,3.458 4.88,6.458 8,9 3.67,0.667 7.33,0.667 11,0 7.04,-4.186 7.71,-9.186 2,-15 -5.24,-1.324 -10.57,-2.324 -16,-3 -13.18,-6.513 -17.01,-16.68 -11.5,-30.5 3.74,-5.574 8.9,-8.908 15.5,-10 -0.58,-3.612 0.42,-6.612 3,-9 z"
           id="path54" /></g><g
         id="g55"
         transform="translate(-1004.9816,-564.61694)"><path
           style="opacity:1"
           fill="#74a34e"
           d="m 1358.5,698.5 c 1.97,21.769 2.64,43.769 2,66 -2.15,-0.128 -4.15,0.372 -6,1.5 0.23,0.399 0.56,0.565 1,0.5 -9.72,4.725 -16.72,12.058 -21,22 -1.01,-0.048 -1.34,0.952 -1,3 -24.51,0.331 -48.84,-0.002 -73,-1 22.23,-21.9 30.06,-48.233 23.5,-79 -4.21,-16.592 -13.04,-30.092 -26.5,-40.5 25.66,-0.5 51.33,-0.667 77,-0.5 2.89,13.799 10.89,23.133 24,28 z"
           id="path55" /></g><g
         id="g56"
         transform="translate(-1004.9816,-564.61694)"><path
           style="opacity:1"
           fill="#3e251e"
           d="m 1320.5,713.5 c 15.65,-0.181 22.82,7.486 21.5,23 -5.96,12.541 -15.12,15.708 -27.5,9.5 -9.33,-9.708 -9.33,-19.374 0,-29 2.23,-0.941 4.23,-2.108 6,-3.5 z"
           id="path56" /></g><g
         id="g57"
         transform="translate(-1004.9816,-564.61694)"><path
           style="opacity:1"
           fill="#280007"
           d="m 1113.5,659.5 c 0,-0.333 0,-0.667 0,-1 0.33,0 0.67,0 1,0 76.33,-0.167 152.67,0 229,0.5 0.88,0.708 1.55,1.542 2,2.5 0.13,0.739 -0.04,1.406 -0.5,2 -0.47,-1.431 -1.3,-2.597 -2.5,-3.5 -76.33,-0.5 -152.67,-0.667 -229,-0.5 z"
           id="path57" /></g><g
         id="g58"
         transform="translate(-1004.9816,-564.61694)"><path
           style="opacity:1"
           fill="#9dde84"
           d="m 1114.5,658.5 c -0.33,0 -0.67,0 -1,0 -1.24,-0.31 -1.24,-0.81 0,-1.5 76.33,-0.667 152.67,-0.667 229,0 -76.17,0.167 -152.17,0.667 -228,1.5 z"
           id="path58" /></g><g
         id="g59"
         transform="translate(-1004.9816,-564.61694)"><path
           style="opacity:1"
           fill="#2c080c"
           d="m 1392.5,822.5 c 0.33,-60.836 0,-121.502 -1,-182 -108.5,-0.833 -217.17,-1.333 -326,-1.5 109,-0.667 218,-0.667 327,0 1.33,61.264 1.33,122.431 0,183.5 z"
           id="path59" /></g><g
         id="g60"
         transform="translate(-1004.9816,-564.61694)"><path
           style="opacity:1"
           fill="#2d070b"
           d="m 1065.5,822.5 c 108.5,0.833 217.17,1.333 326,1.5 -109,0.833 -218,0.667 -327,-0.5 0.12,-0.607 0.46,-0.94 1,-1 z"
           id="path60" /></g><g
         id="g61"
         transform="translate(-1004.9816,-564.61694)"><path
           style="opacity:1"
           fill="#2c1209"
           d="m 1400.5,832.5 c -0.56,1.29 -1.56,2.123 -3,2.5 -113,0.667 -226,0.667 -339,0 -2.58,-1.076 -4.25,-2.909 -5,-5.5 1.13,0.563 2.46,1.73 4,3.5 114.37,0.829 228.71,0.663 343,-0.5 z"
           id="path61" /></g><rect
         style="fill:none"
         id="rect78"
         width="444.01913"
         height="325.2486"
         x="0"
         y="0" /></g></g><g
     inkscape:groupmode="layer"
     id="layer2"
     inkscape:label="wic"
     transform="translate(25.057035,12.528518)"><g
       style="clip-rule:evenodd;fill-rule:evenodd;image-rendering:optimizeQuality;shape-rendering:geometricPrecision;text-rendering:geometricPrecision"
       id="g2"
       transform="matrix(0.26458333,0,0,0.26458333,159.48135,61.251594)"
       inkscape:label="wic"><g
         id="g23"
         transform="translate(-559.13519,-62.126133)"><path
           style="opacity:1"
           fill="#3b251d"
           d="m 780.5,90.5 c 25.302,0.7998 37.135,13.8 35.5,39 -1.833,6.669 -4.5,13.002 -8,19 -2,3.333 -2,6.667 0,10 6.26,4.256 11.927,9.256 17,15 5.135,8.239 7.968,17.239 8.5,27 7.795,2.292 12.128,7.459 13,15.5 -1.667,10.835 -4.5,21.335 -8.5,31.5 -3.222,3.559 -6.722,6.726 -10.5,9.5 4.301,12.915 5.135,26.082 2.5,39.5 -12.225,46.567 -25.225,92.9 -39,139 -12.657,21.911 -31.49,30.744 -56.5,26.5 -26.841,-6.377 -53.507,-13.377 -80,-21 -19.16,-9.47 -28.827,-24.97 -29,-46.5 0.021,-4.723 0.521,-9.389 1.5,-14 11.002,-40.676 22.002,-81.343 33,-122 3.998,-15.672 11.831,-29.006 23.5,-40 -3.043,-3.794 -4.71,-8.128 -5,-13 1.435,-10.743 4.268,-21.076 8.5,-31 5.624,-6.153 12.457,-8.153 20.5,-6 1.666,-7.152 5.666,-12.652 12,-16.5 7.828,-4.415 16.162,-7.415 25,-9 1.786,-0.785 3.286,-1.951 4.5,-3.5 2.391,-8.171 4.058,-16.505 5,-25 4.439,-12.952 13.272,-20.952 26.5,-24 z"
           id="path23" /></g><g
         id="g24"
         transform="translate(-559.13519,-62.126133)"><path
           style="opacity:1"
           fill="#feedc7"
           d="m 711.5,442.5 c -17.436,-4.775 -35.436,-9.942 -54,-15.5 -15.711,-10.448 -21.211,-24.948 -16.5,-43.5 9.798,-36.454 19.631,-71.954 29.5,-106.5 -0.837,-1.011 -1.17,-2.178 -1,-3.5 2.286,-14.698 7.786,-28.031 16.5,-40 3.097,-3.77 6.764,-6.77 11,-9 38.115,10.372 76.281,20.538 114.5,30.5 5.773,7.487 8.439,15.987 8,25.5 -0.19,5.43 -1.024,10.763 -2.5,16 -11.998,43.329 -23.998,86.662 -36,130 -8.211,18.36 -22.377,26.193 -42.5,23.5 -9.245,-2.058 -18.245,-4.558 -27,-7.5 z"
           id="path24" /></g><g
         id="g25"
         transform="translate(-559.13519,-62.126133)"><path
           style="opacity:1"
           fill="#38231c"
           d="m 670.5,382.5 c 11.747,2.353 23.413,5.186 35,8.5 4.523,5.74 3.356,9.907 -3.5,12.5 -10.852,-2.755 -21.686,-5.588 -32.5,-8.5 -4.166,-4.632 -3.833,-8.798 1,-12.5 z"
           id="path25" /></g><g
         id="g26"
         transform="translate(-559.13519,-62.126133)"><path
           style="opacity:1"
           fill="#3a241d"
           d="m 678.5,346.5 c 11.878,1.385 23.544,3.885 35,7.5 5.636,3.203 6.302,7.203 2,12 -1.333,0.167 -2.667,0.333 -4,0.5 -10.359,-2.34 -20.693,-4.84 -31,-7.5 -1.431,-0.465 -2.597,-1.299 -3.5,-2.5 -0.963,-3.649 -0.463,-6.982 1.5,-10 z"
           id="path26" /></g><g
         id="g27"
         transform="translate(-559.13519,-62.126133)"><path
           style="opacity:1"
           fill="#3b251d"
           d="m 689.5,308.5 c 11.328,2.718 22.661,5.551 34,8.5 6.5,2.668 7.5,6.668 3,12 -1.229,0.781 -2.562,1.281 -4,1.5 -11.333,-3.167 -22.667,-6.333 -34,-9.5 -4.166,-4.632 -3.833,-8.798 1,-12.5 z"
           id="path27" /></g><g
         id="g28"
         transform="translate(-559.13519,-62.126133)"><path
           style="opacity:1"
           fill="#63a9e8"
           d="m 698.5,180.5 c 44.124,10.197 88.124,21.031 132,32.5 2.016,1.028 3.016,2.695 3,5 -1.911,7.143 -3.744,14.31 -5.5,21.5 -0.465,1.431 -1.299,2.597 -2.5,3.5 -2.667,0.667 -5.333,0.667 -8,0 -41.031,-10.453 -82.031,-21.12 -123,-32 -2.928,-3.257 -3.762,-7.091 -2.5,-11.5 1.295,-6.72 3.461,-13.053 6.5,-19 z"
           id="path28" /></g><g
         id="g29"
         transform="translate(-559.13519,-62.126133)"><path
           style="opacity:1"
           fill="#fc9c1d"
           d="m 780.5,103.5 c 17.675,-0.157 25.175,8.509 22.5,26 -2.667,6 -5.333,12 -8,18 -1.652,13.865 3.848,23.698 16.5,29.5 5.298,5.388 7.965,11.888 8,19.5 -32.04,-7.51 -64.04,-15.343 -96,-23.5 -1.786,-0.196 -3.119,-1.029 -4,-2.5 2.251,-4.295 5.584,-7.461 10,-9.5 6.143,-2.603 12.477,-4.603 19,-6 7.254,-3.323 12.088,-8.823 14.5,-16.5 1.124,-5.603 1.79,-11.269 2,-17 1.839,-8.997 7.006,-14.997 15.5,-18 z"
           id="path29" /></g><g
         id="g30"
         transform="translate(-559.13519,-62.126133)"><path
           style="opacity:1"
           fill="#efe7d1"
           d="m 669.5,273.5 c -0.17,1.322 0.163,2.489 1,3.5 -9.869,34.546 -19.702,70.046 -29.5,106.5 -4.711,18.552 0.789,33.052 16.5,43.5 18.564,5.558 36.564,10.725 54,15.5 -18.711,-3.428 -37.044,-8.261 -55,-14.5 -9.379,-5.575 -15.212,-13.742 -17.5,-24.5 -0.667,-6.667 -0.667,-13.333 0,-20 10.314,-36.755 20.481,-73.421 30.5,-110 z"
           id="path30" /></g><rect
         style="fill:none"
         id="rect74"
         width="363.62057"
         height="429.40121"
         x="0"
         y="0" /></g></g></svg>
