<?xml version="1.0" encoding="UTF-8"?>
<!-- Generator: visioncortex VTracer 0.6.4 -->
<svg version="1.1" xmlns="http://www.w3.org/2000/svg" width="1024" height="1024">
<path d="M0 0 C337.92 0 675.84 0 1024 0 C1024 337.92 1024 675.84 1024 1024 C686.08 1024 348.16 1024 0 1024 C0 686.08 0 348.16 0 0 Z " fill="#FEFEFE" transform="translate(0,0)"/>
<path d="M0 0 C1.19455173 -0.00453111 2.38910347 -0.00906223 3.61985373 -0.01373065 C6.92772481 -0.0241907 10.23537821 -0.02570224 13.54325032 -0.02334189 C17.11393743 -0.02293329 20.68459226 -0.03397711 24.25526428 -0.04345703 C31.24824024 -0.0600589 38.24118247 -0.06556622 45.23417649 -0.06668179 C50.91997497 -0.06763271 56.60576234 -0.07174524 62.29155731 -0.07808304 C78.41935325 -0.09569378 94.54712259 -0.10492225 110.67492822 -0.10342209 C111.54409827 -0.10334218 112.41326832 -0.10326227 113.30877686 -0.10317993 C114.17901087 -0.10309817 115.04924488 -0.10301641 115.94584963 -0.10293217 C130.04548592 -0.10211947 144.14501533 -0.12125344 158.24462071 -0.14945666 C172.72936552 -0.17820113 187.21405823 -0.19199608 201.69883227 -0.19026911 C209.82794633 -0.18960572 217.95694835 -0.19507579 226.08603668 -0.21662521 C233.00812928 -0.23485767 239.93005907 -0.23916752 246.85216531 -0.22560637 C250.38157426 -0.21908685 253.91067108 -0.2189222 257.44005013 -0.23631287 C261.27243286 -0.25500171 265.1043625 -0.24246231 268.93676758 -0.22705078 C270.0435943 -0.23733791 271.15042101 -0.24762503 272.29078794 -0.25822389 C282.08614478 -0.17133176 290.1573515 2.34913486 297.39813232 9.13461304 C302.82568395 15.48031579 306.3386935 22.70365661 306.35657215 31.07051945 C306.36103 32.04008392 306.36548784 33.0096484 306.37008077 34.00859362 C306.36980423 35.60238703 306.36980423 35.60238703 306.36952209 37.2283783 C306.37319878 38.35926233 306.37687547 39.49014636 306.38066357 40.6552996 C306.39170979 44.45903689 306.39554587 48.26274687 306.39935303 52.0664978 C306.40508496 54.78812392 306.41225095 57.50974595 306.41926575 60.23136902 C306.4390183 68.40928082 306.44909529 76.58719383 306.45799354 84.76512352 C306.46237882 88.61848605 306.46774505 92.47184721 306.47298241 96.32520866 C306.48999424 109.13884095 306.50448737 121.95247239 306.51173115 134.76611423 C306.51364097 138.09052596 306.51556131 141.41493767 306.51751709 144.73934937 C306.51800083 145.56559285 306.51848457 146.39183634 306.51898297 147.2431175 C306.52727939 160.62118462 306.55260994 173.9991622 306.58509777 187.37719024 C306.61819735 201.11945259 306.63618257 214.86166949 306.63937539 228.6039719 C306.64153791 236.31676755 306.65024862 244.02943267 306.67583656 251.74218941 C306.69758331 258.31222475 306.70557457 264.88209788 306.69586978 271.45216513 C306.69133626 274.80152337 306.69535338 278.15027682 306.71263123 281.49963379 C306.73035251 285.13923192 306.72324153 288.77798811 306.71009827 292.41758728 C306.72655214 293.98795812 306.72655214 293.98795812 306.74333841 295.59005362 C306.68697823 302.07814691 306.1141134 311.37566322 301.22235107 316.26742554 C302.43768933 316.26962538 302.43768933 316.26962538 303.67757988 316.27186966 C323.41759214 316.30896639 343.15743309 316.36801913 362.89730644 316.45132828 C372.44348294 316.49109034 381.98957733 316.52349721 391.53582764 316.53842163 C399.85905475 316.55145284 408.18210101 316.57845497 416.50522625 316.6220386 C420.90983702 316.64462041 425.31422499 316.66033819 429.71889877 316.65930939 C433.87062051 316.65856083 438.02185036 316.67658963 442.17344475 316.70859337 C443.69147559 316.7170637 445.2095618 316.71886189 446.72760582 316.71322823 C459.71397856 316.67147929 468.52259611 318.78696791 478.08563232 327.88461304 C482.71728117 333.04970589 485.34182277 339.01969367 485.35657215 345.98429298 C485.36103 346.9600666 485.36548784 347.93584022 485.37008077 348.94118273 C485.36980423 350.55306461 485.36980423 350.55306461 485.36952209 352.19750977 C485.37319878 353.33711761 485.37687547 354.47672545 485.38066357 355.65086687 C485.39172381 359.49001722 485.39554823 363.32914053 485.39935303 367.16830444 C485.40508275 369.91273227 485.41224961 372.65715602 485.41926575 375.40158081 C485.43903054 383.65257363 485.44909686 391.90356769 485.45799354 400.15457827 C485.46237683 404.04057715 485.46774357 407.92657467 485.47298241 411.81257248 C485.48999549 424.73168212 485.50448915 437.65079092 485.51173115 450.56991005 C485.51364103 453.92269517 485.51556136 457.27548029 485.51751709 460.62826538 C485.51800083 461.46158022 485.51848457 462.29489506 485.51898297 463.15346186 C485.52728133 476.64934076 485.55261459 490.14513096 485.58509777 503.64097114 C485.61817926 517.49845343 485.63618093 531.35589066 485.63937539 545.21341264 C485.64153959 552.9932285 485.65027491 560.77291506 485.67583656 568.55269241 C485.69755857 575.17916941 485.70558669 581.80548571 485.69586978 588.43199427 C485.69132912 591.81147497 485.69538467 595.19035577 485.71263123 598.56983566 C485.73030596 602.23864982 485.72326443 605.90662487 485.71009827 609.57543945 C485.72106751 610.63664304 485.73203676 611.69784663 485.74333841 612.79120791 C485.61245125 627.91366251 476.65066772 637.08995201 466.45916748 647.20370483 C462.88367738 650.70904113 459.23519331 654.06692089 455.40985107 657.29867554 C452.2241292 660.16582522 449.23669843 663.22191704 446.22235107 666.26742554 C441.94175147 670.58804655 437.66725373 674.83907501 433.00360107 678.75180054 C431.73989215 679.82706164 430.51365916 680.9470727 429.31610107 682.09555054 C422.45420421 688.57623091 414.01035619 692.38443509 404.49175739 692.3988533 C403.5383765 692.40269445 402.5849956 692.40653559 401.60272437 692.41049314 C400.03606671 692.40919341 400.03606671 692.40919341 398.4377594 692.40786743 C397.325882 692.41083855 396.2140046 692.41380968 395.06843394 692.41687083 C391.32912338 692.42556765 387.58984479 692.42706692 383.8505249 692.42855835 C381.17491504 692.43318584 378.4993081 692.43818978 375.82369995 692.44360352 C368.54464071 692.45718224 361.26558699 692.46321097 353.98651719 692.46761417 C349.44021059 692.47037763 344.89390611 692.4746152 340.34760094 692.47911835 C327.75700037 692.4913109 315.16640151 692.50160992 302.57579517 692.50499344 C301.77004184 692.505213 300.96428852 692.50543257 300.13411842 692.50565879 C299.32644915 692.50587707 298.51877989 692.50609535 297.68663579 692.50632024 C296.05002201 692.5067637 294.41340822 692.50721027 292.77679443 692.50765991 C291.55907188 692.50799206 291.55907188 692.50799206 290.31674888 692.50833091 C277.16690957 692.51227764 264.01712571 692.5297279 250.86730782 692.55301943 C237.36235732 692.57674662 223.85743463 692.58919593 210.35246295 692.59036136 C202.7716604 692.5912774 195.1909301 692.59701182 187.61014748 692.61518097 C181.15389099 692.63060049 174.69772908 692.63569156 168.24145768 692.62744287 C164.94917498 692.62354274 161.65712193 692.62607501 158.36485481 692.63850021 C154.79036003 692.65119859 151.2163524 692.64535376 147.64186096 692.63491821 C146.60857613 692.64297462 145.5752913 692.65103102 144.5106948 692.65933156 C133.8449406 692.58660367 125.93443151 689.7471269 118.22235107 682.26742554 C111.37042245 674.22126099 109.46405187 665.48267488 108.22235107 655.26742554 C107.48710205 656.01838501 106.75185303 656.76934448 105.99432373 657.5430603 C103.22526019 660.36703906 100.44577473 663.18057285 97.66326904 665.99130249 C96.46776026 667.20175915 95.27497366 668.41491143 94.08514404 669.63095093 C72.57699319 691.60037835 72.57699319 691.60037835 57.79415029 692.39852804 C56.93982918 692.40140076 56.08550806 692.40427347 55.20529842 692.40723324 C54.21345922 692.41292448 53.22162002 692.41861572 52.19972509 692.42447942 C51.11744542 692.4256593 50.03516575 692.42683918 48.92008972 692.42805481 C47.76455552 692.43314263 46.60902131 692.43823045 45.41847092 692.44347245 C42.21488598 692.45645261 39.01132598 692.46495205 35.80772245 692.47144544 C33.05887937 692.47782823 30.31005478 692.4878966 27.56122326 692.4980061 C18.50660139 692.53128691 9.45196828 692.55284288 0.39730534 692.57120594 C-1.96144423 692.57600381 -4.32019335 692.58098677 -6.67894244 692.58601117 C-21.33714091 692.61698371 -35.9953434 692.64365914 -50.65356541 692.66042995 C-54.04689605 692.66437922 -57.44022663 692.66838225 -60.83355713 692.67245483 C-61.67691649 692.6734632 -62.52027585 692.67447156 -63.38919156 692.67551047 C-77.0446273 692.69250975 -90.69988159 692.73361296 -104.35522879 692.78447782 C-118.38567842 692.83630859 -132.41603485 692.8653793 -146.4465794 692.87262684 C-154.3198745 692.87728202 -162.19287237 692.89195888 -170.06607246 692.93237114 C-176.77261063 692.96675406 -183.47879787 692.98057722 -190.18541909 692.967947 C-193.60384999 692.96213936 -197.0215395 692.96584749 -200.43985748 692.99611664 C-204.15601381 693.02385237 -207.87032896 693.01426213 -211.58650208 692.99568176 C-213.18649901 693.02087416 -213.18649901 693.02087416 -214.81881911 693.04657549 C-224.07992294 692.93139094 -231.65398007 689.42145253 -239.15264893 684.07992554 C-245.06243406 677.74801289 -248.89336625 670.14235482 -248.91187 661.44592094 C-248.91632785 660.47225637 -248.92078569 659.4985918 -248.92537862 658.49542224 C-248.92519426 657.42832023 -248.9250099 656.36121822 -248.92481995 655.26177979 C-248.92849663 654.12610664 -248.93217332 652.99043349 -248.93596143 651.820346 C-248.9470078 648.00045522 -248.95084374 644.18059163 -248.95465088 640.36068726 C-248.96038273 637.62758654 -248.96754872 634.8944899 -248.9745636 632.16139221 C-248.99431557 623.94937345 -249.00439269 615.73735347 -249.01329139 607.52531689 C-249.01767644 603.65638441 -249.02304269 599.78745329 -249.02828026 595.91852188 C-249.04529141 583.05427522 -249.05978501 570.19002941 -249.067029 557.32577324 C-249.06893884 553.98829014 -249.07085918 550.65080705 -249.07281494 547.31332397 C-249.07329868 546.48382756 -249.07378242 545.65433115 -249.07428082 544.79969849 C-249.08257902 531.36599053 -249.10791286 517.93237169 -249.14039562 504.49870263 C-249.17348594 490.70107451 -249.19147955 476.90349164 -249.19467324 463.10582364 C-249.19683653 455.36120205 -249.2055586 447.6167104 -249.23113441 439.87212753 C-249.25286842 433.27571336 -249.26087862 426.67946069 -249.25116763 420.08301477 C-249.24663055 416.71960441 -249.25066688 413.35679655 -249.26792908 409.99338722 C-249.28562697 406.34030252 -249.27855088 402.68805858 -249.26539612 399.03497314 C-249.27636536 397.98125546 -249.28733461 396.92753778 -249.29863626 395.84188926 C-249.2212111 386.91536323 -247.12278349 378.9538715 -240.77764893 372.39242554 C-239.99518799 371.57387085 -239.21272705 370.75531616 -238.40655518 369.91195679 C-237.10524658 368.60291382 -237.10524658 368.60291382 -235.77764893 367.26742554 C-234.78635701 366.2508947 -233.79548722 365.23395209 -232.80499268 364.21664429 C-228.00920294 359.3279247 -223.12294511 354.61092729 -217.90264893 350.17367554 C-215.08367595 347.64489096 -212.4386885 344.96058537 -209.77764893 342.26742554 C-205.27366056 337.72011616 -200.69953914 333.36577113 -195.77764893 329.26742554 C-194.99905518 328.5880896 -194.22046143 327.90875366 -193.41827393 327.20883179 C-183.17440148 318.53971613 -173.41207566 316.09208975 -160.18023682 316.15390015 C-158.93512329 316.15368111 -158.93512329 316.15368111 -157.66485596 316.15345764 C-154.94331169 316.1541498 -152.22183737 316.16190933 -149.50030518 316.16976929 C-147.60458921 316.17163594 -145.70887275 316.17305868 -143.81315613 316.17405701 C-138.84016573 316.17786267 -133.86720486 316.18767619 -128.89422607 316.19876099 C-123.81305338 316.20901716 -118.73187588 316.21356362 -113.6506958 316.21859741 C-103.69300059 316.2293003 -93.73532722 316.24635316 -83.77764893 316.26742554 C-83.7813361 315.0027498 -83.78502327 313.73807405 -83.78882217 312.43507481 C-83.87549469 282.3994015 -83.94143153 252.3637605 -83.98191024 222.32799274 C-83.98691294 218.62933666 -83.99209024 214.93068084 -83.99737549 211.23202515 C-83.99842473 210.49570409 -83.99947397 209.75938304 -84.00055501 209.00074922 C-84.01794981 197.08574671 -84.04948238 185.17082157 -84.08626011 173.25586493 C-84.12369532 161.02570208 -84.14589022 148.7955797 -84.1540029 136.56536192 C-84.15948535 129.02151254 -84.17678728 121.47788188 -84.20931479 113.93409985 C-84.23300203 108.14488341 -84.23546225 102.35580643 -84.23007965 96.56655121 C-84.23117924 94.19502098 -84.23912444 91.8234824 -84.25447083 89.45200157 C-84.27442005 86.20996226 -84.26956938 82.96885295 -84.25866699 79.72679138 C-84.27031836 78.79194273 -84.28196972 77.85709407 -84.29397416 76.89391667 C-84.16443609 62.60802144 -75.07664439 53.21539261 -65.40264893 43.70492554 C-64.68593018 42.98885132 -63.96921143 42.2727771 -63.23077393 41.53500366 C-58.57280243 36.91486768 -53.75475284 32.53966762 -48.77764893 28.26742554 C-43.40028534 23.54901271 -38.23917818 18.7373967 -33.27764893 13.57992554 C-23.24866189 3.4516416 -14.04259689 -0.03898078 0 0 Z " fill="#0D181D" transform="translate(391.77764892578125,144.73257446289063)"/>
<path d="M0 0 C0.97978577 -0.00621475 1.95957154 -0.01242949 2.96904778 -0.01883256 C3.85047318 -0.02664823 4.73189858 -0.0344639 5.64003384 -0.04251641 C10.1619687 0.08816321 12.99612663 1.30356729 16.60967374 3.94107306 C20.06219759 8.42414308 19.67730177 12.16827007 19.61306214 17.68453372 C19.62015653 18.77079737 19.62725092 19.85706103 19.63456029 20.97624177 C19.65218893 24.62306174 19.63400933 28.26882282 19.61597657 31.91562808 C19.62111351 34.52729176 19.62839308 37.13895198 19.63765931 39.75060427 C19.65604281 46.11214616 19.6475188 52.47338098 19.62957109 58.83491331 C19.61554672 64.0054363 19.61165192 69.17587592 19.61501336 74.34641612 C19.6154908 75.08225242 19.61596825 75.81808872 19.61646016 76.57622309 C19.61748649 78.07106306 19.61854184 79.565903 19.61962592 81.06074292 C19.62819457 94.28066191 19.61151339 107.50043266 19.58179688 120.72031558 C19.55296491 133.54687633 19.54587292 146.37322349 19.56128907 159.19980776 C19.57805313 173.16700539 19.58208292 187.13410158 19.56457871 201.10130185 C19.56273433 202.5909554 19.5608996 204.08060897 19.55907464 205.57026255 C19.55816255 206.30319667 19.55725046 207.03613079 19.55631073 207.79127504 C19.55070615 212.95472666 19.55401184 218.11812876 19.56061959 223.28157771 C19.56916217 230.23293435 19.55618551 237.18397769 19.52877069 244.13528407 C19.521876 246.68866208 19.5218004 249.24206882 19.52898622 251.79544604 C19.53765596 255.27696858 19.52176504 258.75753462 19.49953675 262.23897707 C19.50777752 263.25308167 19.51601829 264.26718627 19.52450877 265.31202132 C19.45510667 271.18853818 18.91246863 274.55726768 14.98487306 279.02524722 C8.48902604 283.22939237 1.04922705 282.50453754 -6.45262694 282.53696597 C-8.00339996 282.55417722 -9.55416105 282.57248991 -11.10490966 282.59177554 C-15.47434423 282.64138964 -19.84371681 282.67048371 -24.21335387 282.69540942 C-27.02350587 282.71279907 -29.83356726 282.7354157 -32.64366698 282.7597748 C-49.43392996 282.90420191 -66.22437199 282.97116606 -83.01512694 283.02524722 C-83.82777385 283.02790591 -84.64042075 283.0305646 -85.47769332 283.03330386 C-112.55642344 283.1216546 -139.635123 283.1755542 -166.71398187 283.20246798 C-173.76651946 283.20974603 -180.81904287 283.22123095 -187.87157226 283.234079 C-196.59202628 283.24964023 -205.31244881 283.25719627 -214.03291702 283.255198 C-218.56782012 283.25427062 -223.10266371 283.25649798 -227.63755584 283.26708376 C-231.84694322 283.27673224 -236.05622394 283.27691733 -240.26561522 283.26971269 C-241.79884289 283.26869761 -243.33207726 283.27106287 -244.86529326 283.27712822 C-246.95766192 283.28486552 -249.04965822 283.28018906 -251.14201903 283.27248538 C-252.89081674 283.27330253 -252.89081674 283.27330253 -254.67494369 283.27413619 C-259.48160097 282.91597501 -263.61133738 282.17044397 -267.39012694 279.08774722 C-269.85474571 275.95957724 -270.14056376 273.38201365 -270.14655471 269.53146708 C-270.15039585 268.6054776 -270.154237 267.67948812 -270.15819454 266.72543836 C-270.15732806 265.70648618 -270.15646158 264.68753401 -270.15556884 263.63770449 C-270.15853996 262.55652767 -270.16151108 261.47535085 -270.16457224 260.36141109 C-270.17327897 256.72021462 -270.17476915 253.07905095 -270.17625976 249.43784487 C-270.18088648 246.83471 -270.18591094 244.2315758 -270.19130492 241.62844241 C-270.20489013 234.54380125 -270.2109131 227.45916576 -270.21531558 220.37451375 C-270.21807738 215.95203337 -270.22231459 211.52955518 -270.22681975 207.10707629 C-270.2390121 194.8656474 -270.24931185 182.62422027 -270.25269485 170.38278544 C-270.25291441 169.59923163 -270.25313398 168.81567782 -270.2533602 168.00837996 C-270.25357847 167.22294034 -270.25379675 166.43750072 -270.25402164 165.6282599 C-270.25446511 164.03663067 -270.25491168 162.44500144 -270.25536132 160.85337222 C-270.25558275 160.06386736 -270.25580418 159.2743625 -270.25603232 158.46093325 C-270.25998156 145.66398639 -270.27743957 132.86709643 -270.30072084 120.07017155 C-270.32442324 106.93591602 -270.33689617 93.80168907 -270.33806276 80.6674118 C-270.33898009 73.29128344 -270.34474695 65.91522923 -270.36288238 58.53912127 C-270.37987467 51.60346738 -270.38154432 44.66795659 -270.37274337 37.732288 C-270.37197019 35.18331618 -270.37635243 32.63433693 -270.38620162 30.08538401 C-270.39883708 26.6123384 -270.39308983 23.13979871 -270.38261962 19.66675723 C-270.39067602 18.65226649 -270.39873243 17.63777576 -270.40703297 16.59254289 C-270.34472692 7.78813205 -270.34472692 7.78813205 -267.01512694 4.02524722 C-262.47610975 0.04788063 -257.37404196 0.59839492 -251.65523314 0.6265198 C-250.0740067 0.61654956 -250.0740067 0.61654956 -248.46083629 0.6063779 C-244.92268313 0.58770166 -241.3848668 0.59035645 -237.84666991 0.59287417 C-235.31208354 0.58385927 -232.77750153 0.57353273 -230.24292541 0.56199038 C-224.78091379 0.54007823 -219.31900213 0.52731713 -213.85695052 0.52286112 C-205.94781553 0.51639373 -198.03879543 0.49344269 -190.12970676 0.46651783 C-177.28163385 0.42322887 -164.43356577 0.39327914 -151.58543944 0.37168276 C-139.13261545 0.35072264 -126.67983163 0.32347502 -114.22704101 0.28769839 C-113.0778928 0.28440015 -113.0778928 0.28440015 -111.90552948 0.28103528 C-108.06061031 0.26996182 -104.2156915 0.25876763 -100.37077284 0.24751878 C-76.23385378 0.17705486 -52.09692756 0.11642947 -27.95995116 0.06943667 C-26.75194539 0.06706437 -25.54393962 0.06469206 -24.29932761 0.06224787 C-20.91185957 0.05566915 -17.52439124 0.04928848 -14.1369226 0.04302371 C-13.16461884 0.04117912 -12.19231509 0.03933453 -11.19054759 0.03743404 C-9.36796117 0.03420193 -7.54537255 0.03199882 -5.72278357 0.03096223 C-3.81516537 0.02693585 -1.90755557 0.01597295 0 0 Z " fill="#FE8C4B" transform="translate(601.0151269435883,215.97475278377533)"/>
<path d="M0 0 C1.67589441 -0.010195 1.67589441 -0.010195 3.38564527 -0.02059597 C7.12506081 -0.03956916 10.86414886 -0.03713101 14.60360718 -0.03465271 C17.28616043 -0.04362988 19.96868814 -0.05375314 22.65122986 -0.06518555 C29.17783966 -0.09006355 35.70436816 -0.09834804 42.23102142 -0.10002268 C47.53498077 -0.10144947 52.83891335 -0.10762022 58.14286423 -0.11712456 C73.18333772 -0.14352753 88.22374708 -0.15738449 103.26424392 -0.15513314 C104.07442227 -0.15501327 104.88460062 -0.1548934 105.71932983 -0.1547699 C106.5304976 -0.15464726 107.34166537 -0.15452461 108.17741399 -0.15439826 C121.33631622 -0.15317775 134.4949614 -0.18191866 147.65378924 -0.224185 C161.16787166 -0.26725001 174.68182858 -0.28799724 188.19598138 -0.28540367 C195.78228077 -0.28440717 203.36831029 -0.29267424 210.95454788 -0.32493782 C217.41020742 -0.3522179 223.86547463 -0.35880765 230.32116677 -0.33840955 C233.61523587 -0.32859712 236.90839327 -0.33174513 240.20242119 -0.3544693 C243.77210192 -0.37750533 247.33978837 -0.36378302 250.90942383 -0.34057617 C251.95231367 -0.35600686 252.99520351 -0.37143755 254.06969607 -0.38733584 C258.81451497 -0.31890494 261.10841751 -0.1427836 264.97170162 2.77851963 C267.84457033 7.16336423 267.50900444 12.03499035 267.44245911 17.10475159 C267.44814236 18.18370256 267.45382562 19.26265354 267.45968109 20.3743 C267.47260194 23.99040906 267.44977716 27.60540279 267.42709351 31.22145081 C267.42895724 33.81355525 267.43299317 36.4056589 267.43904114 38.99775696 C267.44970751 45.30771546 267.43377437 51.61733993 267.40890288 57.92724752 C267.38095918 65.2766293 267.37962984 72.62594361 267.37945987 79.97536969 C267.37827272 93.08936923 267.35330682 106.20321547 267.31478882 119.31715393 C267.27744426 132.03982889 267.25619325 144.76239237 267.25326538 157.48512268 C267.25308257 158.26872075 267.25289976 159.05231883 267.25271141 159.85966229 C267.25253244 160.64191072 267.25235347 161.42415915 267.25216907 162.23011208 C267.25180365 163.80515671 267.25143128 165.38020134 267.2510519 166.95524597 C267.25086639 167.73201994 267.25068087 168.5087939 267.25048974 169.30910647 C267.24691807 181.4370234 267.22846596 193.56492314 267.20855866 205.69282258 C267.20154015 210.08689131 267.19675509 214.48095596 267.19359731 218.87502909 C267.18807223 226.49749767 267.1723888 234.1198476 267.14541054 241.74227142 C267.13796495 244.27468855 267.13389825 246.80711817 267.13343048 249.3395462 C267.13217433 252.79230836 267.11864066 256.24480832 267.10188293 259.69752502 C267.10429802 260.70316561 267.1067131 261.70880619 267.10920137 262.74492073 C267.0719335 267.63898579 266.96035718 271.88687977 264.82772827 276.40113831 C257.86086121 280.99293705 250.08007814 280.54977049 242.04818726 280.54830933 C240.41751013 280.55382436 240.41751013 280.55382436 238.75389004 280.55945081 C235.11052923 280.57046557 231.46719697 280.57432767 227.82382202 280.57814026 C225.21201487 280.58440631 222.60020861 280.59105324 219.98840332 280.59805298 C212.15395967 280.61777137 204.31951482 280.62787466 196.48505259 280.63678077 C192.79392825 280.64116854 189.10280534 280.64653383 185.41168213 280.65176964 C173.14096881 280.66877218 160.87025636 280.68326838 148.59953308 280.69051838 C145.4187622 280.69242818 142.23799132 280.69434853 139.05722046 280.69630432 C138.2666838 280.69678806 137.47614714 280.6972718 136.66165483 280.6977702 C123.84292313 280.70607844 111.02428449 280.73143306 98.20559347 280.763885 C85.0407282 280.79694157 71.8759103 280.81496559 58.7110033 280.81816262 C51.32088755 280.82032829 43.93090781 280.829086 36.54083252 280.85462379 C29.59361567 280.87857652 22.64664762 280.88216542 15.69939804 280.87186241 C13.14761415 280.87136535 10.59581845 280.87773563 8.0440712 280.89141846 C4.56484041 280.90903358 1.0864997 280.90208166 -2.39273071 280.8888855 C-3.40615319 280.89985474 -4.41957567 280.91082399 -5.46370792 280.92212564 C-11.18044355 280.86965114 -14.7558479 280.41038105 -19.17227173 276.40113831 C-23.20135799 271.85096834 -22.57612543 266.64944284 -22.51525879 260.89370728 C-22.51585521 259.82377783 -22.51645163 258.75384838 -22.51706612 257.65149683 C-22.51531891 254.06013052 -22.49195175 250.46923142 -22.46865845 246.87794495 C-22.46286211 244.3056971 -22.45835128 241.73344608 -22.45503235 239.16119385 C-22.4443846 232.89592716 -22.4174125 226.63083227 -22.38460402 220.36564643 C-22.35823513 215.27334145 -22.33777445 210.18104454 -22.32153702 205.08869743 C-22.31922136 204.36396258 -22.31690569 203.63922772 -22.31451986 202.8925312 C-22.30984168 201.4202393 -22.30517732 199.94794736 -22.30052663 198.47565537 C-22.25621985 184.66836652 -22.19343564 170.86120882 -22.12432016 157.05402493 C-22.0654513 145.20857277 -22.02228228 133.36314845 -21.9906311 121.51759338 C-21.95386651 107.76132055 -21.90744481 94.00513647 -21.84558117 80.24895185 C-21.83900894 78.78176627 -21.83244885 77.31458063 -21.82590103 75.84739494 C-21.82267409 75.12551726 -21.81944716 74.40363959 -21.81612244 73.65988683 C-21.79405293 68.57460774 -21.77887401 63.4893348 -21.76635361 58.40402412 C-21.74928703 51.55773279 -21.71640548 44.71166916 -21.67287636 37.86549568 C-21.65927039 35.35083247 -21.65074701 32.83613593 -21.64763832 30.32143784 C-21.64257506 26.89256926 -21.61922964 23.46429942 -21.59118652 20.03555298 C-21.59398774 19.03701217 -21.59678896 18.03847137 -21.59967506 17.00967175 C-21.53600142 11.82014916 -21.42149584 7.68996038 -18.17227173 3.40113831 C-12.35774159 -0.19726537 -6.69534201 -0.02995417 0 0 Z " fill="#FEC94D" transform="translate(187.17227172851563,533.5988616943359)"/>
<path d="M0 0 C1.36100865 -0.00853686 1.36100865 -0.00853686 2.74951243 -0.01724619 C4.24671223 -0.019016 4.24671223 -0.019016 5.77415848 -0.02082157 C7.36318037 -0.0284533 7.36318037 -0.0284533 8.98430371 -0.03623921 C12.55172548 -0.05199787 16.11912695 -0.06049773 19.68657303 -0.06893253 C22.23720301 -0.07846811 24.78783169 -0.08835914 27.33845901 -0.09858036 C35.00507708 -0.12728296 42.67169798 -0.14704976 50.33835018 -0.16397271 C52.50367032 -0.16876811 54.66898996 -0.17375138 56.83430958 -0.17877793 C70.28052094 -0.20974692 83.72673661 -0.23643214 97.17297363 -0.25319672 C100.28720736 -0.25714621 103.40144102 -0.26114921 106.51567459 -0.2652216 C107.28970175 -0.26622996 108.06372892 -0.26723832 108.86121145 -0.26827724 C121.40145095 -0.28528611 133.94149319 -0.32639835 146.48163638 -0.37724458 C159.35599584 -0.42901669 172.23025384 -0.45813831 185.10471654 -0.4653936 C192.33346603 -0.47005612 199.56189236 -0.48480983 206.79053879 -0.5251379 C213.59008215 -0.56302611 220.38897696 -0.57043772 227.18864441 -0.55713177 C229.68519293 -0.55718584 232.18176546 -0.56753027 234.67822266 -0.5888834 C238.08538346 -0.61646992 241.49051758 -0.60709649 244.89769363 -0.58844852 C245.88690394 -0.60524345 246.87611425 -0.62203838 247.89530063 -0.63934225 C253.77371378 -0.55887499 257.02070116 0.4474915 261.34862834 4.48985857 C263.57276711 7.44629078 263.5534743 10.57006221 263.47636795 14.10660458 C263.49252309 15.28463996 263.49252309 15.28463996 263.50900459 16.48647404 C263.53652578 19.1114375 263.51432757 21.73357835 263.49223709 24.3585577 C263.50176781 26.24442918 263.51435355 28.13028732 263.52975845 30.01611996 C263.56283343 35.14868305 263.55258071 40.28035877 263.53451157 45.41296291 C263.52252464 50.84689259 263.54948093 56.2806375 263.57182693 61.71451473 C263.60411054 70.8697021 263.6111165 80.024613 263.60014725 89.17984676 C263.58521602 101.65688531 263.61415846 114.13348807 263.65395355 126.61045551 C263.73446662 152.78722505 263.71105822 178.96319999 263.58989334 205.1398077 C263.58350719 206.52081284 263.58350719 206.52081284 263.57699203 207.92971706 C263.5216921 219.46470593 263.43203999 230.99885316 263.30030441 242.53321743 C263.27763283 244.67963403 263.26006487 246.82603492 263.24400711 248.97251034 C263.21414899 252.84237972 263.15979952 256.71166047 263.10161209 260.58121395 C263.0952121 261.69671124 263.0888121 262.81220852 263.08221817 263.96150875 C262.89978296 273.33080377 262.89978296 273.33080377 259.58989334 277.1398077 C253.07408504 280.66186624 245.58714675 280.28520441 238.38653946 280.27352047 C237.36138023 280.27578603 236.336221 280.27805158 235.27999634 280.28038579 C231.84625587 280.28671389 228.412555 280.28589719 224.97880936 280.28507137 C222.51640649 280.28806357 220.0540041 280.29146623 217.59160233 280.29524899 C211.5982683 280.3031683 205.60494984 280.30630332 199.61161203 280.30686136 C194.73957854 280.30733695 189.86754829 280.30939383 184.99551582 280.31256199 C171.17670308 280.32136491 157.3578981 280.32598183 143.53908253 280.32523151 C142.79457813 280.32519156 142.05007372 280.3251516 141.28300858 280.32511044 C140.53759345 280.32506955 139.79217832 280.32502867 139.02417486 280.32498655 C126.94010067 280.32457999 114.85605763 280.3341532 102.77199245 280.3482488 C90.35858026 280.36261415 77.94518326 280.36951893 65.53176254 280.36865503 C58.56475791 280.36832315 51.59778594 280.37106603 44.6307888 280.38183308 C38.08005902 280.39189216 31.52938646 280.39160112 24.97864914 280.38431644 C22.57403526 280.38326924 20.1694171 280.38564153 17.76481056 280.3916769 C14.48320241 280.3993803 11.20183376 280.39476282 7.92023087 280.38704586 C6.96808545 280.39218942 6.01594004 280.39733299 5.03494173 280.40263242 C-1.65890631 280.36783171 -7.15664661 280.19164138 -12.31113815 275.49834347 C-14.72685236 271.63298649 -15.09646537 268.82037978 -14.99360275 264.40323544 C-14.99591085 263.63689313 -14.99821896 262.87055082 -15.000597 262.08098602 C-15.00215815 259.49446886 -14.96764448 256.90967706 -14.93354416 254.32340145 C-14.92711455 252.42944591 -14.92289195 250.53548183 -14.92066574 248.64151669 C-14.90793112 243.39504314 -14.86351091 238.14923846 -14.81373978 232.90300274 C-14.76542532 227.29134834 -14.74446091 221.67958669 -14.72016525 216.06778622 C-14.67564769 206.61664586 -14.61522098 197.16570204 -14.54459405 187.71472538 C-14.4127514 170.02353226 -14.33892207 152.33229599 -14.27053916 134.64075941 C-14.21453899 120.29655247 -14.14406799 105.95241032 -14.07350481 91.60826892 C-14.0473356 86.2448706 -14.02338925 80.88146747 -14.00103045 75.51805198 C-13.9651753 66.92483102 -13.92294122 58.33169343 -13.86791849 49.738572 C-13.84256139 45.75524487 -13.82038368 41.77196657 -13.8066597 37.78858089 C-13.793853 34.10455082 -13.77186337 30.42069133 -13.74269986 26.73675549 C-13.72941069 24.76395372 -13.72574128 22.79109438 -13.72241402 20.81825066 C-13.66660552 14.91952138 -13.60435654 9.65930423 -11.41010666 4.1398077 C-7.98610818 0.82626079 -4.66428676 0.01707151 0 0 Z " fill="#4CD5C5" transform="translate(538.4101066589355,533.8601922988892)"/>
<path d="M0 0 C1.28012466 -0.00191345 2.56024933 -0.0038269 3.87916565 -0.00579834 C6.58477636 -0.00873509 9.29025443 -0.00450535 11.99584961 0.00488281 C15.41144628 0.01617504 18.826728 0.00958091 22.24231339 -0.00198936 C73.26055359 -0.14924743 73.26055359 -0.14924743 91.5234375 16.984375 C99.67178344 25.73095394 103.42211854 37.60533226 103.7890625 49.40625 C102.91904936 65.61820217 95.32414588 77.42803466 83.69140625 88.265625 C82.88703125 89.07 82.08265625 89.874375 81.25390625 90.703125 C80.73828125 91.21875 80.22265625 91.734375 79.69140625 92.265625 C80.58085937 92.52472656 81.4703125 92.78382813 82.38671875 93.05078125 C92.94341091 96.93155106 100.47877195 106.65654896 105.26171875 116.49609375 C111.19715802 130.41893843 111.50800842 143.78429415 106.1796875 157.953125 C104.14130685 162.48999322 101.77300932 166.37390979 98.69140625 170.265625 C98.03398437 171.18214844 98.03398437 171.18214844 97.36328125 172.1171875 C87.44470665 185.05693712 70.15823444 189.59797692 54.80917358 191.99001694 C48.95925725 192.75133008 43.07896008 192.67016804 37.19140625 192.62890625 C35.77612305 192.62838524 34.36083913 192.62891222 32.94555664 192.63041687 C30.01453508 192.63032827 27.08379504 192.62012327 24.15283203 192.60180664 C20.41653911 192.57895376 16.68064931 192.57861788 12.94430542 192.58532429 C10.03591387 192.58867802 7.12761264 192.58201059 4.21923828 192.57219505 C2.84147617 192.56837959 1.46370397 192.56717945 0.0859375 192.5687809 C-18.775437 192.57245391 -18.775437 192.57245391 -26.30859375 186.265625 C-29.0306127 181.79190433 -29.68470924 178.45353974 -29.68954468 173.25123596 C-29.69656464 172.22802471 -29.69656464 172.22802471 -29.70372641 171.18414253 C-29.71563945 168.91105347 -29.70623407 166.63857146 -29.69677734 164.36547852 C-29.70084474 162.73064829 -29.70618756 161.09582082 -29.71270752 159.46099854 C-29.72636805 155.02913825 -29.72108741 150.5974878 -29.71157026 146.1656239 C-29.70396584 141.52308421 -29.71102157 136.88056227 -29.71572876 132.23802185 C-29.72118457 124.44111919 -29.71399983 116.64430182 -29.69970703 108.84741211 C-29.68338658 99.84055826 -29.68866532 90.83390822 -29.70518625 81.82705933 C-29.71881291 74.08759716 -29.72071483 66.34819625 -29.71287024 58.60872597 C-29.70819948 53.98913766 -29.70755234 49.36964505 -29.71747971 44.75006294 C-29.72616406 40.40549843 -29.7201007 36.06119585 -29.70279694 31.71665955 C-29.69883968 30.12477999 -29.69995309 28.53287828 -29.70658493 26.94100761 C-29.71482117 24.76270955 -29.7044549 22.58524321 -29.68954468 20.40699768 C-29.6884136 19.18972772 -29.68728252 17.97245775 -29.68611717 16.71830082 C-29.13256318 11.65572096 -27.68419893 7.71983619 -24.12109375 3.953125 C-16.66859927 -0.51837169 -8.42141703 -0.02799606 0 0 Z " fill="#0D181E" transform="translate(273.30859375,571.734375)"/>
<path d="M0 0 C7.08353695 5.91336295 9.96725668 15.99433805 12.91169739 24.41325378 C13.55370338 26.20605019 13.55370338 26.20605019 14.2086792 28.0350647 C15.11642185 30.57330113 16.02041839 33.11248513 16.91786194 35.65434265 C18.31818549 39.61988176 19.73307137 43.58011593 21.15144348 47.53923035 C21.50264378 48.51965774 21.50264378 48.51965774 21.86093903 49.51989174 C22.33019576 50.82980274 22.79949987 52.13969678 23.26885223 53.44957352 C23.96277472 55.38754639 24.655373 57.3259881 25.34767151 59.26454163 C28.55002058 68.22128796 31.83111523 77.13997355 35.24372864 86.01872253 C42.2430221 104.27663723 48.91190303 122.65279516 55.55622864 141.04216003 C55.94221222 142.11025909 56.3281958 143.17835815 56.72587585 144.27882385 C58.66778039 149.65341087 60.60787228 155.02864174 62.54499817 160.404953 C63.25966152 162.38559088 63.97434173 164.36622267 64.68904114 166.34684753 C65.0208136 167.2693631 65.35258606 168.19187866 65.69441223 169.14234924 C65.99959778 169.98746063 66.30478333 170.83257202 66.61921692 171.70329285 C66.88582123 172.44331543 67.15242554 173.18333801 67.42710876 173.94578552 C68.10560326 175.82651711 68.10560326 175.82651711 69.11872864 177.76872253 C69.6871123 184.70300317 69.6871123 184.70300317 67.61872864 188.58122253 C62.00337089 193.49466056 56.02829832 194.32669223 48.79450989 194.02653503 C41.37945894 193.31209217 41.37945894 193.31209217 38.11872864 190.76872253 C31.2305123 181.50710524 28.09951674 168.42228488 24.19026184 157.68962097 C22.85221977 154.0422445 21.4828652 150.40642004 20.11872864 146.76872253 C-5.29127136 146.43872253 -30.70127136 146.10872253 -56.88127136 145.76872253 C-57.87127136 149.06872253 -58.86127136 152.36872253 -59.88127136 155.76872253 C-60.56377619 157.73573799 -61.26682221 159.69591883 -62.00236511 161.64372253 C-62.38070496 162.64919128 -62.7590448 163.65466003 -63.14884949 164.69059753 C-63.53492371 165.70637878 -63.92099792 166.72216003 -64.31877136 167.76872253 C-64.70097839 168.78450378 -65.08318542 169.80028503 -65.47697449 170.84684753 C-66.60137147 173.82487689 -67.73986788 176.79717637 -68.88127136 179.76872253 C-69.2397113 180.72125916 -69.59815125 181.67379578 -69.967453 182.65519714 C-70.31026306 183.54730896 -70.65307312 184.43942078 -71.00627136 185.35856628 C-71.30662292 186.14868103 -71.60697449 186.93879578 -71.91642761 187.75285339 C-73.30989841 190.66426239 -75.13322523 192.14807994 -77.88127136 193.76872253 C-83.9692606 195.79805228 -91.97731742 195.8992537 -98.00627136 193.51872253 C-100.91947655 191.74546721 -102.36568635 190.79989256 -103.88127136 187.76872253 C-105.39804086 181.52510253 -104.20327019 177.40076641 -102.09220886 171.56169128 C-101.77794952 170.65775131 -101.46369019 169.75381134 -101.13990784 168.82247925 C-96.81018304 156.4981726 -92.14300753 144.29234174 -87.50627136 132.08122253 C-82.27641717 118.30256821 -77.08285968 104.52768375 -72.31486511 90.58122253 C-67.93207623 77.76182126 -63.17031538 65.10443461 -58.31877136 52.45622253 C-57.1104179 49.29315816 -55.90317537 46.12967222 -54.69636536 42.96601868 C-53.90657186 40.9002015 -53.11395218 38.83546239 -52.31837463 36.77186584 C-50.40782968 31.81103791 -48.5378868 26.84255851 -46.75675964 21.83366394 C-46.41435745 20.88804092 -46.07195526 19.94241791 -45.71917725 18.96813965 C-45.08482487 17.21137152 -44.46400072 15.44962345 -43.86062622 13.68197632 C-41.68022884 7.70348451 -38.62312502 3.06402037 -33.88127136 -1.23127747 C-24.72637824 -5.24919913 -8.54560049 -5.60245835 0 0 Z " fill="#0D181E" transform="translate(494.8812713623047,257.2312774658203)"/>
<path d="M0 0 C21.71015036 -0.53722352 44.20719917 6.36437262 60.43359375 21.12109375 C67.90281785 28.26892266 77.64883059 39.18610922 78.18359375 50.12109375 C77.73742954 54.26734388 76.20877745 56.9807543 73.43359375 60.12109375 C68.08943274 64.39642256 62.72647857 66.41364022 55.87109375 66.18359375 C52.31638549 65.66544983 50.60506589 64.7633838 48.24609375 62.05859375 C47.28386984 60.7641102 46.34704359 59.45044393 45.43359375 58.12109375 C44.41737287 56.74268132 43.39652264 55.36766996 42.37109375 53.99609375 C41.62279297 52.990625 41.62279297 52.990625 40.859375 51.96484375 C32.13032779 40.67687037 20.65840725 35.18632127 6.72265625 33.375 C-5.21196017 32.45368163 -18.50130342 34.59491672 -27.8671875 42.5078125 C-28.42792969 43.04019531 -28.98867188 43.57257812 -29.56640625 44.12109375 C-30.09621094 44.62253906 -30.62601563 45.12398437 -31.171875 45.640625 C-45.72010824 61.0116375 -49.26191338 86.21073775 -48.8125 106.41015625 C-48.2363183 120.56530676 -44.25560559 136.52485259 -34.86328125 147.5078125 C-33.56640625 149.12109375 -33.56640625 149.12109375 -32.64453125 151.203125 C-31.2835229 153.62433914 -30.07768841 154.01981588 -27.56640625 155.12109375 C-26.20440276 156.08932989 -24.85067912 157.06928209 -23.50390625 158.05859375 C-11.53949996 165.98961834 3.35066398 165.53575922 16.99609375 162.87109375 C27.95212884 160.14770076 36.74025231 154.92988259 43.296875 145.41796875 C44.29299978 143.72727557 45.25838364 142.01775753 46.1796875 140.28515625 C48.17799169 136.83636957 49.62519714 135.39055929 53.43359375 134.12109375 C60.90777807 133.44564894 67.23867516 133.57914622 73.43359375 138.12109375 C76.69427728 141.05570893 77.35074066 142.49969557 77.93359375 146.87109375 C77.20822208 159.38960491 67.03952757 171.30563946 58.4609375 179.54296875 C39.53918685 195.65697576 16.4878662 199.40313686 -7.56640625 198.12109375 C-28.50325709 196.32489015 -49.29216144 185.5356237 -62.90771484 169.54589844 C-73.79834203 155.98973313 -79.65170459 140.93566947 -83.56640625 124.12109375 C-83.74743896 123.35998291 -83.92847168 122.59887207 -84.11499023 121.81469727 C-84.99774999 116.54726168 -84.75231437 111.17029183 -84.75170898 105.84106445 C-84.75386784 103.72130392 -84.77196856 101.60208858 -84.79101562 99.48242188 C-84.84142516 87.62925089 -83.85777548 75.99966081 -80.31640625 64.62109375 C-80.09879639 63.91170654 -79.88118652 63.20231934 -79.65698242 62.47143555 C-71.75369868 37.41026019 -57.76937419 21.01240569 -34.71875 8.5859375 C-23.65184955 3.25622255 -12.20041213 0.57566633 0 0 Z " fill="#0C181D" transform="translate(663.56640625,568.87890625)"/>
<path d="M0 0 C0.1316566 27.53336883 0.26209443 55.06674322 0.39115143 82.60012436 C0.45112624 95.3895062 0.51147332 108.17888606 0.57275391 120.96826172 C0.6262769 132.13882252 0.6790433 143.30938661 0.73096704 154.47995496 C0.75838613 160.37342672 0.7861391 166.2668964 0.81480408 172.16036224 C0.82572685 174.41686497 0.83663702 176.67336776 0.84753418 178.92987061 C0.85555156 180.58313091 0.85555156 180.58313091 0.86373091 182.26979041 C0.88930129 187.65561536 0.91225003 193.04142951 0.92946625 198.42728806 C0.93278316 199.4607139 0.93610007 200.49413974 0.9395175 201.55888152 C0.94611843 203.62170754 0.95262619 205.68453386 0.95903826 207.74736047 C0.98122893 214.0376067 1.02699261 220.32723823 1.08912516 226.61721301 C1.12765938 230.72535053 1.15450009 234.83351652 1.17925167 238.94175768 C1.19369315 240.86458753 1.21344255 242.78738595 1.23889256 244.7101016 C1.27326442 247.34315302 1.2890728 249.97571186 1.30065918 252.60894775 C1.31544658 253.37587149 1.33023397 254.14279523 1.34546947 254.93295908 C1.34161104 260.81669396 -0.1003978 264.7375273 -3.8659668 269.22241211 C-4.55343994 269.90053955 -5.24091309 270.57866699 -5.94921875 271.27734375 C-6.71556641 272.03853516 -7.48191406 272.79972656 -8.27148438 273.58398438 C-9.46741211 274.74897461 -9.46741211 274.74897461 -10.6875 275.9375 C-11.46544922 276.71029297 -12.24339844 277.48308594 -13.04492188 278.27929688 C-19.06931706 284.2232998 -25.20950431 289.93990132 -32 295 C-32.09154138 261.47011291 -32.16203151 227.9402569 -32.20426132 194.41027262 C-32.20926419 190.45238857 -32.21444147 186.49450477 -32.21972656 182.53662109 C-32.2207758 181.74867266 -32.22182505 180.96072422 -32.22290608 180.14889856 C-32.24031467 167.38799047 -32.27185485 154.62715441 -32.30861118 141.86628906 C-32.346008 128.77394091 -32.36823318 115.6816305 -32.37635398 102.58923113 C-32.38184438 94.50949948 -32.39918962 86.42997141 -32.43166587 78.35030241 C-32.45529524 72.15637182 -32.45782302 65.96259667 -32.45243073 59.76862717 C-32.45353307 57.22651922 -32.46151481 54.68440371 -32.4768219 52.14234161 C-32.49667477 48.67593813 -32.49195544 45.21041111 -32.48101807 41.74398804 C-32.49266943 40.73425474 -32.5043208 39.72452143 -32.51632524 38.68419015 C-32.44974068 30.89587028 -30.36553402 27.09085615 -24.828125 21.59765625 C-24.2498999 21.02063965 -23.6716748 20.44362305 -23.07592773 19.84912109 C-22.47337158 19.25953613 -21.87081543 18.66995117 -21.25 18.0625 C-20.62746338 17.44713379 -20.00492676 16.83176758 -19.36352539 16.19775391 C-15.05156069 11.9615756 -10.6677628 7.84470318 -6 4 C-5.030625 3.195625 -4.06125 2.39125 -3.0625 1.5625 C-1 0 -1 0 0 0 Z " fill="#F4623A" transform="translate(675,181)"/>
<path d="M0 0 C1.09105703 47.36234295 1.24930369 94.72571777 1.28926277 142.09888458 C1.30013777 154.85088898 1.32505107 167.60269343 1.36874419 180.35462928 C1.39884812 189.45818984 1.41370331 198.56169696 1.41702431 207.66530633 C1.41936404 213.05657674 1.42819881 218.44764379 1.45348549 223.83885956 C1.47669603 228.8596281 1.48102814 233.88005731 1.47072411 238.90086555 C1.47022839 240.73630212 1.47655927 242.57175538 1.49028015 244.40714073 C1.50797434 246.91333521 1.50090869 249.41830408 1.48774719 251.92449951 C1.49871644 252.64594517 1.50968568 253.36739082 1.52098733 254.11069846 C1.44210543 260.34075192 -0.69345348 264.36818765 -4.76416016 269.01293945 C-5.34987793 269.54105225 -5.9355957 270.06916504 -6.5390625 270.61328125 C-7.19769287 271.21712646 -7.85632324 271.82097168 -8.53491211 272.44311523 C-9.56950562 273.36846069 -9.56950562 273.36846069 -10.625 274.3125 C-12.05728006 275.62098467 -13.48826899 276.93088399 -14.91796875 278.2421875 C-15.96090088 279.19496582 -15.96090088 279.19496582 -17.02490234 280.16699219 C-20.55735572 283.44531851 -23.91509901 286.88778946 -27.27734375 290.33984375 C-29 292 -29 292 -30 292 C-30.13736078 258.63157838 -30.24307189 225.26322715 -30.30639198 191.89458555 C-30.31389613 187.95430006 -30.32166208 184.01401513 -30.32958984 180.07373047 C-30.33116371 179.28929727 -30.33273757 178.50486407 -30.33435912 177.69666016 C-30.36046051 164.99848684 -30.40776431 152.30047664 -30.46291678 139.60240006 C-30.51904425 126.57106861 -30.55235655 113.53982254 -30.56453097 100.50837517 C-30.57275999 92.46845935 -30.59874117 84.42900465 -30.6474988 76.38923079 C-30.68299176 70.22221333 -30.6867265 64.05554673 -30.67864609 57.88844109 C-30.6802973 55.36005757 -30.69223959 52.83165666 -30.71523285 50.30337715 C-30.74509596 46.85045407 -30.73790539 43.3995021 -30.7215271 39.9465332 C-30.73900415 38.94651653 -30.7564812 37.94649986 -30.77448785 36.91617966 C-30.68537622 29.96360163 -28.85172827 25.97837691 -24 21 C-22.0637905 19.22345126 -20.06981059 17.62942536 -18 16 C-15.35279617 13.40609557 -12.76368971 10.75815256 -10.17578125 8.10546875 C-9.2213791 7.13278804 -8.26695188 6.16013192 -7.3125 5.1875 C-6.82716797 4.68541016 -6.34183594 4.18332031 -5.84179688 3.66601562 C-2.22565901 0 -2.22565901 0 0 0 Z " fill="#26B8A1" transform="translate(854,500)"/>
<path d="M0 0 C0.8736627 -0.00260775 1.7473254 -0.00521549 2.64746273 -0.00790226 C3.60288971 -0.00567154 4.55831669 -0.00344082 5.542696 -0.0011425 C6.56120742 -0.00270249 7.57971884 -0.00426248 8.62909424 -0.00586975 C12.05271216 -0.00986822 15.47628598 -0.00669442 18.89990425 -0.00355339 C21.35065423 -0.00490802 23.80140401 -0.00668831 26.2521534 -0.00886345 C32.22672291 -0.01295768 38.20127504 -0.01234721 44.17584388 -0.00945081 C49.03689977 -0.00719202 53.89795214 -0.00688633 58.75900841 -0.00797462 C59.79705579 -0.00820447 59.79705579 -0.00820447 60.85607383 -0.00843897 C62.26207446 -0.0087587 63.66807509 -0.00908292 65.07407571 -0.00941156 C78.26776525 -0.01226491 91.46144785 -0.00898269 104.65513624 -0.00361119 C115.95401423 0.00084683 127.25288193 0.00008892 138.55175972 -0.00452995 C151.68288343 -0.00989535 164.81400104 -0.01197983 177.9451257 -0.00891769 C179.34899847 -0.00859916 180.75287123 -0.00828479 182.156744 -0.00797462 C182.84738576 -0.00782035 183.53802752 -0.00766607 184.24959781 -0.00750712 C189.09467292 -0.00664712 193.93974414 -0.0080939 198.78481865 -0.01045418 C205.32650436 -0.01357089 211.86817381 -0.01131486 218.4098587 -0.00555992 C220.80346647 -0.00424415 223.19707588 -0.00460621 225.59068298 -0.00682259 C237.31194959 -0.01666985 248.94944232 -0.01173923 260.62695503 1.12584114 C259.90765816 1.84255989 259.18836128 2.55927864 258.44726753 3.29771614 C256.66063392 5.08929887 254.88334959 6.89029533 253.11914253 8.70396614 C250.79761954 11.07399857 248.44212834 13.39746395 246.05908394 15.7049427 C244.72176025 17.03177937 243.44307799 18.41700116 242.16992378 19.80552864 C236.64350056 25.25362461 232.33205296 26.7240784 224.830019 26.8609333 C223.96034799 26.89011642 223.09067699 26.91929953 222.19465232 26.94936699 C219.33866441 27.03437097 216.48391167 27.08565175 213.62695503 27.12584114 C212.67111928 27.13961272 211.71528353 27.15338431 210.73048306 27.16757321 C203.25866327 27.25763443 195.7876606 27.25147168 188.31543159 27.23936653 C185.83960661 27.23908377 183.36378155 27.23924413 180.88795662 27.23980904 C175.60135701 27.24003494 170.31477284 27.23724443 165.02817726 27.2315712 C157.38505498 27.22337452 149.74193863 27.2208327 142.09881243 27.21958321 C129.69233702 27.21740538 117.28586825 27.21078004 104.87939644 27.20128059 C92.84196188 27.19207341 80.80452913 27.18500883 68.76709175 27.18077278 C68.02261033 27.18051006 67.27812891 27.18024733 66.51108745 27.17997665 C62.77549826 27.17867142 59.03990906 27.17740776 55.30431986 27.17616475 C24.41186008 27.16583173 -6.48059142 27.14817297 -37.37304497 27.12584114 C-36.41405956 26.00018442 -35.45410578 24.87535264 -34.49374199 23.75087166 C-33.69203607 22.81115359 -33.69203607 22.81115359 -32.87413406 21.85245132 C-30.1195859 18.6840645 -27.06550197 15.86086765 -23.99804497 13.00084114 C-23.37671684 12.40658333 -22.75538872 11.81232552 -22.11523247 11.20005989 C-15.56893731 5.07305223 -9.26531714 0.00199669 0 0 Z " fill="#FD8D4B" transform="translate(393.37304496765137,166.87415885925293)"/>
<path d="M0 0 C0.87454834 0.00523682 1.74909668 0.01047363 2.65014648 0.01586914 C3.59438477 0.0190918 4.53862305 0.02231445 5.51147461 0.02563477 C6.50469727 0.03401367 7.49791992 0.04239258 8.52124023 0.05102539 C9.51833008 0.05553711 10.51541992 0.06004883 11.54272461 0.06469727 C14.01478872 0.07652532 16.48673541 0.0930069 18.95874023 0.11352539 C18.89963609 30.71342856 18.82531817 61.31325139 18.72975395 91.91306055 C18.71848576 95.52545474 18.70734731 99.13784931 18.69628906 102.75024414 C18.69408538 103.46940844 18.6918817 104.18857274 18.68961123 104.92952989 C18.65423656 116.57491266 18.62937339 128.22029536 18.60839321 139.86571194 C18.58663251 151.81453506 18.55357954 163.76328843 18.51003867 175.71205223 C18.48590584 182.42368617 18.46699706 189.13525068 18.46112633 195.84692764 C18.45509101 202.16208587 18.43514716 208.47704632 18.40446472 214.79213142 C18.3956596 217.11167975 18.39196701 219.43125389 18.39373207 221.75081825 C18.39537985 224.91501078 18.37872721 228.07859683 18.35746765 231.2427063 C18.36231523 232.16294779 18.3671628 233.08318928 18.37215728 234.03131688 C18.3065591 239.93762177 17.37579371 244.14487941 13.53588867 248.86108398 C13.05152344 249.32337402 12.5671582 249.78566406 12.06811523 250.26196289 C11.52638672 250.78894775 10.9846582 251.31593262 10.42651367 251.85888672 C9.85964844 252.39666748 9.2927832 252.93444824 8.70874023 253.48852539 C7.54010434 254.62321952 6.37342541 255.75993273 5.20874023 256.89868164 C4.64928711 257.44540527 4.08983398 257.99212891 3.51342773 258.55541992 C0.89621189 261.17838969 -1.49938122 263.97537912 -3.86938477 266.82055664 C-4.25610352 267.24723633 -4.64282227 267.67391602 -5.04125977 268.11352539 C-5.37125977 268.11352539 -5.70125977 268.11352539 -6.04125977 268.11352539 C-6.10991665 234.96581068 -6.16278385 201.81811441 -6.19445575 168.67034482 C-6.1982079 164.75752469 -6.20209087 160.84470469 -6.20605469 156.93188477 C-6.20684162 156.15290817 -6.20762855 155.37393158 -6.20843933 154.57134964 C-6.22149556 141.95595488 -6.24515059 129.34060111 -6.27271815 116.72523068 C-6.30076632 103.78204223 -6.31743478 90.83887525 -6.32352525 77.89565766 C-6.32764292 69.90809265 -6.34065128 61.92064348 -6.36500917 53.93311413 C-6.38273197 47.80970339 -6.38462687 41.6863811 -6.38058281 35.56294823 C-6.38140953 33.04987181 -6.38739525 30.53679109 -6.39887619 28.02374077 C-6.41376669 24.59687196 -6.41022554 21.17050179 -6.40202332 17.74362183 C-6.41076184 16.74556137 -6.41950036 15.74750091 -6.42850369 14.7191962 C-6.33533885 0.35234213 -6.33533885 0.35234213 0 0 Z " fill="#D69B49" transform="translate(483.041259765625,521.886474609375)"/>
<path d="M0 0 C1.51736629 0.01209004 3.03476445 0.02062152 4.5521698 0.02587891 C8.64239262 0.05007569 12.73035645 0.12378242 16.81974792 0.20698166 C21.10707837 0.28583464 25.3947682 0.3192429 29.68261719 0.35766602 C36.80927207 0.42751607 43.93503828 0.52549034 51.06103516 0.64453125 C60.64716727 0.80452955 70.23327991 0.9148748 79.82024956 1.00994682 C134.50360826 1.56134739 134.50360826 1.56134739 150.80859375 2.81640625 C145.91459256 8.93390773 140.33960005 14.19612598 134.44082451 19.33415127 C132.75928171 20.82017293 132.75928171 20.82017293 131.14976692 22.59420109 C126.49179015 27.3044817 123.10445516 28.62952774 116.51847839 28.75080872 C115.46936783 28.73499252 114.42025726 28.71917633 113.33935547 28.70288086 C112.21238754 28.71365662 111.08541962 28.72443237 109.92430115 28.73553467 C106.19496255 28.76293102 102.46762759 28.74098501 98.73828125 28.71875 C96.10221127 28.72816018 93.46615065 28.74063326 90.83010864 28.7559967 C84.57033757 28.78725725 78.3111133 28.78299154 72.0513078 28.76592213 C65.11074995 28.74863658 58.17051347 28.77006244 51.23000097 28.79542804 C35.99642831 28.84981683 20.76330113 28.84069177 5.52964783 28.82033539 C-0.46168133 28.81400902 -6.45300448 28.81513297 -12.44433594 28.81689453 C-14.09276521 28.81735385 -14.09276521 28.81735385 -15.77449608 28.81782246 C-17.89485932 28.81842518 -20.01522255 28.81904175 -22.13558578 28.81967354 C-29.487526 28.82121474 -36.83946639 28.81867854 -44.19140625 28.81640625 C-43.25550121 27.71088735 -42.31760767 26.60705172 -41.37890625 25.50390625 C-40.59580078 24.58158203 -40.59580078 24.58158203 -39.796875 23.640625 C-36.85409605 20.29688347 -36.85409605 20.29688347 -35.19140625 18.81640625 C-34.53140625 18.81640625 -33.87140625 18.81640625 -33.19140625 18.81640625 C-32.86140625 17.82640625 -32.53140625 16.83640625 -32.19140625 15.81640625 C-30.41633963 14.02775493 -28.5071476 12.47800326 -26.55784607 10.88157654 C-24.18770146 8.89851112 -24.18770146 8.89851112 -22.317276 6.72279358 C-15.66544097 -0.39110334 -9.28344934 -0.25583446 0 0 Z " fill="#4CD6C6" transform="translate(683.19140625,483.18359375)"/>
<path d="M0 0 C9.466875 -0.12375 9.466875 -0.12375 19.125 -0.25 C21.0858252 -0.28641602 23.04665039 -0.32283203 25.06689453 -0.36035156 C38.4649598 -0.50531582 51.81423513 0.1486163 62 10 C66.95484741 14.95484741 67.77579926 20.17507066 68.3125 26.9375 C68.12135562 32.34263821 67.01506617 37.54780307 63.5234375 41.796875 C51.13327598 53.22524316 31.66073967 51.4615571 16 51 C10.72 50.67 5.44 50.34 0 50 C0 33.5 0 17 0 0 Z " fill="#FDCA4D" transform="translate(279,682)"/>
<path d="M0 0 C1.36561093 -0.00067608 2.73122175 -0.00164863 4.09683228 -0.00289917 C6.94249633 -0.00436283 9.78812873 -0.00226552 12.63378906 0.00244141 C16.24296796 0.00812691 19.85207225 0.00485859 23.4612484 -0.00113106 C26.27717631 -0.00478227 29.09308717 -0.00357721 31.90901566 -0.00100327 C33.87451477 -0.00003115 35.8400146 -0.00301708 37.80551147 -0.00613403 C45.7814837 0.01439268 53.65897559 0.4024872 61.6015625 1.1328125 C61.73957275 2.47617676 61.73957275 2.47617676 61.88037109 3.84667969 C62.76682214 11.94101545 64.90879592 17.52723346 69.6015625 24.1328125 C70.5915625 25.6178125 70.5915625 25.6178125 71.6015625 27.1328125 C44.35520532 28.07077678 17.1376168 28.26195004 -10.12316895 28.20147705 C-15.36791561 28.19100622 -20.61266764 28.18663011 -25.85742188 28.18164062 C-36.03777376 28.17110787 -46.21810297 28.15418194 -56.3984375 28.1328125 C-55.44056785 27.00738138 -54.48157612 25.88290521 -53.52210999 24.75883484 C-52.98819169 24.13254024 -52.4542734 23.50624563 -51.90417576 22.8609724 C-50.26023774 20.97419842 -48.54129241 19.22929755 -46.70703125 17.52734375 C-46.07216797 16.93630859 -45.43730469 16.34527344 -44.78320312 15.73632812 C-44.14060547 15.14529297 -43.49800781 14.55425781 -42.8359375 13.9453125 C-42.18947266 13.34267578 -41.54300781 12.74003906 -40.87695312 12.11914062 C-27.8294722 0.02732463 -17.38610644 -0.02748435 0 0 Z " fill="#FDC94C" transform="translate(246.3984375,483.8671875)"/>
<path d="M0 0 C10.333125 -0.12375 10.333125 -0.12375 20.875 -0.25 C23.0288623 -0.28641602 25.18272461 -0.32283203 27.40185547 -0.36035156 C29.14028939 -0.3720518 30.87873442 -0.38224045 32.6171875 -0.390625 C33.4944751 -0.41108887 34.3717627 -0.43155273 35.27563477 -0.45263672 C43.01049848 -0.45692553 49.34056584 1.69296542 55.875 5.8125 C60.63541219 10.71292432 62.73295236 15.90224739 63.3125 22.625 C63.1865004 28.77607135 61.23614463 34.40975871 57.19921875 39.0859375 C49.9341407 45.77263069 43.54809861 47.45868273 33.91015625 47.29296875 C33.07190308 47.28994751 32.2336499 47.28692627 31.36999512 47.28381348 C28.26736977 47.26823086 25.16492127 47.22634759 22.0625 47.1875 C15.111875 47.125625 8.16125 47.06375 1 47 C0.67 31.49 0.34 15.98 0 0 Z " fill="#FEC94C" transform="translate(277,603)"/>
<path d="M0 0 C2.21279729 2.21279729 2.80006152 3.7258928 3.8828125 6.63671875 C4.42047241 8.07374146 4.42047241 8.07374146 4.96899414 9.53979492 C5.35047607 10.5785376 5.73195801 11.61728027 6.125 12.6875 C6.52388428 13.76169189 6.92276855 14.83588379 7.33374023 15.94262695 C10.34424387 24.09644695 13.21543894 32.29473305 16.03173828 40.51733398 C18.68892706 48.23198979 21.56491883 55.85161742 24.56274414 63.44018555 C24.88235107 64.25914307 25.20195801 65.07810059 25.53125 65.921875 C25.81548828 66.63956055 26.09972656 67.35724609 26.39257812 68.09667969 C27 70 27 70 27 73 C9.18 73 -8.64 73 -27 73 C-20.09962024 52.29886071 -20.09962024 52.29886071 -16.8359375 43.75 C-16.47658112 42.80036377 -16.11722473 41.85072754 -15.74697876 40.87231445 C-14.62630601 37.91360427 -13.50066357 34.95681438 -12.375 32 C-11.61688143 29.99881384 -10.85906758 27.99751221 -10.1015625 25.99609375 C-9.36746725 24.05978975 -8.63310196 22.1235881 -7.8984375 20.1875 C-7.39985733 18.87313965 -7.39985733 18.87313965 -6.89120483 17.53222656 C-4.65600056 11.66284113 -2.34957057 5.82451753 0 0 Z " fill="#FC8E4C" transform="translate(476,298)"/>
<path d="M0 0 C2.17581687 2.84881728 4.20937999 5.76084088 6.1875 8.75 C6.71730469 9.54921875 7.24710937 10.3484375 7.79296875 11.171875 C8.19128906 11.77515625 8.58960938 12.3784375 9 13 C-18.24635718 13.93796428 -45.4639457 14.12913754 -72.72473145 14.06866455 C-77.96947811 14.05819372 -83.21423014 14.05381761 -88.45898438 14.04882812 C-98.63933626 14.03829537 -108.81966547 14.02136944 -119 14 C-118.34 13.01 -117.68 12.02 -117 11 C-114.84858513 10.63085651 -114.84858513 10.63085651 -112.12789917 10.63923645 C-111.09862305 10.63511246 -110.06934692 10.63098846 -109.00888062 10.6267395 C-107.87528107 10.63752533 -106.74168152 10.64831116 -105.57373047 10.65942383 C-104.38350281 10.65898575 -103.19327515 10.65854767 -101.96697998 10.65809631 C-98.69845455 10.65983133 -95.43031177 10.67490236 -92.16186285 10.69581819 C-88.74790953 10.71454041 -85.33394913 10.7163319 -81.91995239 10.71989441 C-75.45299051 10.72922803 -68.98618033 10.75385947 -62.51928532 10.78394288 C-55.15785265 10.81744606 -47.79641283 10.83396259 -40.43492293 10.84902918 C-25.28986402 10.880408 -10.14494716 10.93319392 5 11 C4.6390625 10.45730469 4.278125 9.91460937 3.90625 9.35546875 C3.21015625 8.28232422 3.21015625 8.28232422 2.5 7.1875 C1.80390625 6.12595703 1.80390625 6.12595703 1.09375 5.04296875 C0 3 0 3 0 0 Z " fill="#E9D04F" transform="translate(309,498)"/>
<path d="M0 0 C7.05375 -0.04125 14.1075 -0.0825 21.375 -0.125 C23.60169434 -0.14320801 25.82838867 -0.16141602 28.12255859 -0.18017578 C29.88118244 -0.18601524 31.63980898 -0.19111209 33.3984375 -0.1953125 C34.31665283 -0.20554443 35.23486816 -0.21577637 36.1809082 -0.22631836 C37.49007202 -0.22668091 37.49007202 -0.22668091 38.82568359 -0.22705078 C39.58513275 -0.231492 40.34458191 -0.23593323 41.12704468 -0.24050903 C43 0 43 0 45 2 C30.81 2 16.62 2 2 2 C2 16.52 2 31.04 2 46 C14.54 46 27.08 46 40 46 C40 46.33 40 46.66 40 47 C27.13 47 14.26 47 1 47 C0.67 31.49 0.34 15.98 0 0 Z " fill="#EDDB51" transform="translate(277,603)"/>
<path d="M0 0 C13.2 0 26.4 0 40 0 C40 0.33 40 0.66 40 1 C21.19 1.495 21.19 1.495 2 2 C1.67 17.84 1.34 33.68 1 50 C0.67 50 0.34 50 0 50 C0 33.5 0 17 0 0 Z " fill="#D2AE43" transform="translate(279,682)"/>
<path d="M0 0 C0.66 0.33 1.32 0.66 2 1 C0.55218207 4.44428265 -1.27694609 6.36130962 -4.125 8.75 C-5.21167969 9.67039062 -5.21167969 9.67039062 -6.3203125 10.609375 C-6.87460937 11.06828125 -7.42890625 11.5271875 -8 12 C-8 8.24111186 -7.049166 7.58681685 -4.5625 4.875 C-3.92441406 4.17117188 -3.28632812 3.46734375 -2.62890625 2.7421875 C-1.76410115 1.81724008 -0.89538137 0.89538137 0 0 Z " fill="#54E2D4" transform="translate(636,610)"/>
<path d="M0 0 C0.639375 0.680625 1.27875 1.36125 1.9375 2.0625 C5.62709757 5.77342473 9.83346374 8.8501349 14 12 C13.67 12.66 13.34 13.32 13 14 C12.25234375 13.44570313 11.5046875 12.89140625 10.734375 12.3203125 C9.74953125 11.59585938 8.7646875 10.87140625 7.75 10.125 C6.77546875 9.40570312 5.8009375 8.68640625 4.796875 7.9453125 C2.56097846 6.39017775 0.47127507 5.11795777 -2 4 C-1.34 2.68 -0.68 1.36 0 0 Z " fill="#EFDA52" transform="translate(355,660)"/>
<path d="M0 0 C0.33 0.99 0.66 1.98 1 3 C-1.21689281 6.85903564 -3.74480375 9.97731777 -7 13 C-7.99 12.67 -8.98 12.34 -10 12 C-9.52949219 11.63648438 -9.05898438 11.27296875 -8.57421875 10.8984375 C-4.52807056 7.63136132 -1.99716574 4.93417419 0 0 Z " fill="#080A16" transform="translate(346,716)"/>
<path d="M0 0 C0.33 0.99 0.66 1.98 1 3 C-5.0546875 3.1953125 -5.0546875 3.1953125 -7 3 C-7.66 2.34 -8.32 1.68 -9 1 C-5.846632 0.29925156 -3.27275026 0 0 0 Z " fill="#242420" transform="translate(264,572)"/>
<path d="M0 0 C0.99 0.33 1.98 0.66 3 1 C-0.465 3.97 -0.465 3.97 -4 7 C-4 4 -4 4 -2 1.8125 C-1.34 1.214375 -0.68 0.61625 0 0 Z " fill="#E9924C" transform="translate(366,183)"/>
<path d="M0 0 C2.5654594 2.5654594 2.54046087 4.47686668 3 8 C2.01 7.34 1.02 6.68 0 6 C-0.66 6 -1.32 6 -2 6 C-1.34 4.02 -0.68 2.04 0 0 Z " fill="#F09F52" transform="translate(476,298)"/>
<path d="M0 0 C0.66 0.33 1.32 0.66 2 1 C2 3.31 2 5.62 2 8 C1.34 8 0.68 8 0 8 C-1.125 2.25 -1.125 2.25 0 0 Z " fill="#52E1D4" transform="translate(578,687)"/>
</svg>
