<?xml version="1.0" encoding="UTF-8" standalone="no"?>
<svg
   version="1.1"
   width="471.42767"
   height="460.46429"
   style="clip-rule:evenodd;fill-rule:evenodd;image-rendering:optimizeQuality;shape-rendering:geometricPrecision;text-rendering:geometricPrecision"
   id="svg68"
   sodipodi:docname="ChatGPT Image Aug 9, 2025, 02_31_31 PM.svg"
   xmlns:inkscape="http://www.inkscape.org/namespaces/inkscape"
   xmlns:sodipodi="http://sodipodi.sourceforge.net/DTD/sodipodi-0.dtd"
   xmlns="http://www.w3.org/2000/svg"
   xmlns:svg="http://www.w3.org/2000/svg">
  <defs
     id="defs68" />
  <sodipodi:namedview
     id="namedview68"
     pagecolor="#ffffff"
     bordercolor="#000000"
     borderopacity="0.25"
     inkscape:showpageshadow="2"
     inkscape:pageopacity="0.0"
     inkscape:pagecheckerboard="0"
     inkscape:deskcolor="#d1d1d1">
    <inkscape:page
       x="0"
       y="0"
       width="471.42767"
       height="460.46429"
       id="page2"
       margin="0"
       bleed="0" />
  </sodipodi:namedview>
  <g
     id="g2"
     transform="translate(-995.8454,-60.298897)">
    <path
       style="opacity:1"
       fill="#0b0000"
       d="m 1397.5,139.5 c 0.96,0.453 1.79,1.119 2.5,2 0.83,81.403 0.66,162.737 -0.5,244 0.16,-80.755 -0.01,-161.755 -0.5,-243 -1.04,-0.744 -1.54,-1.744 -1.5,-3 z"
       id="path2" />
  </g>
  <g
     id="g3"
     transform="translate(-995.8454,-60.298897)">
    <path
       style="opacity:1"
       fill="#3c271e"
       d="m 1397.5,139.5 c -0.04,1.256 0.46,2.256 1.5,3 0.49,81.245 0.66,162.245 0.5,243 -0.33,1 -1,1.667 -2,2 -0.06,-0.543 -0.39,-0.876 -1,-1 -105.03,0.662 -209.36,1.329 -313,2 0.17,21.003 0,42.003 -0.5,63 -0.38,1.442 -1.21,2.442 -2.5,3 -2.39,-0.71 -4.89,-1.377 -7.5,-2 0.17,-103.005 -0.67,-205.672 -2.5,-308 -9.17,-5.351 -12.67,-13.351 -10.5,-24 7.09,-15.585 18.25,-19.418 33.5,-11.5 8.52,8.1 10.19,17.433 5,28 99.33,0.333 198.67,0.667 298,1 0.56,0.383 0.89,0.883 1,1.5 z"
       id="path3" />
  </g>
  <g
     id="g4"
     transform="translate(-995.8454,-60.298897)">
    <path
       style="opacity:1"
       fill="#d72b3b"
       d="m 1101.5,355.5 c 0.79,0.283 1.46,0.783 2,1.5 88.5,0.832 176.83,0.666 265,-0.5 0.33,0 0.67,0 1,0 1,-61.164 1.33,-122.498 1,-184 1.63,-1.56 2.8,-1.227 3.5,1 1.09,-2.432 1.59,-2.098 1.5,1 1.7,-0.466 3.2,-0.466 4.5,0 2.02,-3.582 3.68,-3.582 5,0 0.19,-2.208 0.69,-4.208 1.5,-6 0,68.667 0,137.333 0,206 -100.67,0 -201.33,0 -302,0 0,-66.333 0,-132.667 0,-199 -0.16,-2.687 0,-5.354 0.5,-8 0.33,3.667 0.67,7.333 1,11 0.33,-1 0.67,-2 1,-3 1.65,1.555 1.98,3.221 1,5 1,1 2,2 3,3 0.67,-1.333 1.33,-1.333 2,0 0,-1.333 0,-2.667 0,-4 0.41,0.457 0.91,0.791 1.5,1 0.88,-1.26 1.88,-2.426 3,-3.5 -0.33,-0.333 -0.67,-0.667 -1,-1 2.39,-0.976 3.55,-2.809 3.5,-5.5 0.17,61.835 0.67,123.501 1.5,185 z"
       id="path4" />
  </g>
  <g
     id="g5"
     transform="translate(-995.8454,-60.298897)">
    <path
       style="opacity:1"
       fill="#203761"
       d="m 1368.5,170.5 c -1,61.498 -1.33,123.164 -1,185 -87.67,-0.167 -175.33,0 -263,0.5 88,0.5 176,0.667 264,0.5 -88.17,1.166 -176.5,1.332 -265,0.5 -0.54,-0.717 -1.21,-1.217 -2,-1.5 0,-61.667 0,-123.333 0,-185 89.1,-1.332 178.1,-1.332 267,0 z"
       id="path5" />
  </g>
  <g
     id="g6"
     transform="translate(-995.8454,-60.298897)">
    <path
       style="opacity:1"
       fill="#f6373d"
       d="m 1370.5,172.5 c 0.33,61.502 0,122.836 -1,184 0.33,-62.169 0,-124.169 -1,-186 -88.9,-1.332 -177.9,-1.332 -267,0 0.08,-1.25 0.74,-2.083 2,-2.5 88,-0.667 176,-0.667 264,0 2.36,0.589 3.36,2.089 3,4.5 z"
       id="path6" />
  </g>
  <g
     id="g7"
     transform="translate(-995.8454,-60.298897)">
    <path
       style="opacity:1"
       fill="#ed3a43"
       d="m 1388.5,151.5 c -0.99,4.47 -1.32,9.137 -1,14 -0.9,0.709 -1.24,1.709 -1,3 -0.81,1.792 -1.31,3.792 -1.5,6 -1.32,-3.582 -2.98,-3.582 -5,0 -1.3,-0.466 -2.8,-0.466 -4.5,0 0.09,-3.098 -0.41,-3.432 -1.5,-1 -0.7,-2.227 -1.87,-2.56 -3.5,-1 0.36,-2.411 -0.64,-3.911 -3,-4.5 -88,-0.667 -176,-0.667 -264,0 -1.26,0.417 -1.92,1.25 -2,2.5 0,61.667 0,123.333 0,185 -0.83,-61.499 -1.33,-123.165 -1.5,-185 0.05,2.691 -1.11,4.524 -3.5,5.5 0.33,0.333 0.67,0.667 1,1 -1.12,1.074 -2.12,2.24 -3,3.5 -0.59,-0.209 -1.09,-0.543 -1.5,-1 0,1.333 0,2.667 0,4 -0.67,-1.333 -1.33,-1.333 -2,0 -1,-1 -2,-2 -3,-3 0.98,-1.779 0.65,-3.445 -1,-5 -0.33,1 -0.67,2 -1,3 -0.33,-3.667 -0.67,-7.333 -1,-11 -0.5,2.646 -0.66,5.313 -0.5,8 -0.33,0 -0.67,0 -1,0 0,-8.667 0,-17.333 0,-26 102.01,-0.664 203.67,0.002 305,2 z"
       id="path7" />
  </g>
  <g
     id="g8"
     transform="translate(-995.8454,-60.298897)">
    <path
       style="opacity:1"
       fill="#7d797b"
       d="m 1077.5,117.5 c 9.37,-0.143 12.87,4.19 10.5,13 -6.14,5.755 -11.47,5.088 -16,-2 -0.82,-5.018 1.01,-8.685 5.5,-11 z"
       id="path8" />
  </g>
  <g
     id="g9"
     transform="translate(-995.8454,-60.298897)">
    <path
       style="opacity:1"
       fill="#163765"
       d="m 1368.5,170.5 c 1,61.831 1.33,123.831 1,186 -0.33,0 -0.67,0 -1,0 -88,0.167 -176,0 -264,-0.5 87.67,-0.5 175.33,-0.667 263,-0.5 -0.33,-61.836 0,-123.502 1,-185 z"
       id="path9" />
  </g>
  <g
     id="g10"
     transform="translate(-995.8454,-60.298897)">
    <path
       style="opacity:1"
       fill="#2b110a"
       d="m 1070.5,144.5 c 1.83,102.328 2.67,204.995 2.5,308 2.61,0.623 5.11,1.29 7.5,2 -4.08,1.819 -7.25,0.819 -9.5,-3 -0.5,-102.333 -0.67,-204.666 -0.5,-307 z"
       id="path10" />
  </g>
  <g
     id="g11"
     transform="translate(-995.8454,-60.298897)">
    <path
       style="opacity:1"
       fill="#f6283d"
       d="m 1387.5,165.5 c 0,70 0,140 0,210 -101.33,0 -202.67,0 -304,0 0,-66.667 0,-133.333 0,-200 0.33,0 0.67,0 1,0 0,66.333 0,132.667 0,199 100.67,0 201.33,0 302,0 0,-68.667 0,-137.333 0,-206 -0.24,-1.291 0.1,-2.291 1,-3 z"
       id="path11" />
  </g>
  <g
     id="g12"
     transform="translate(-995.8454,-60.298897)">
    <path
       style="opacity:1"
       fill="#091a4a"
       d="m 1318.5,278.5 c 0.8,-1.452 1.3,-3.118 1.5,-5 1.4,7.043 -0.93,8.71 -7,5 -1.2,-5.919 -1.86,-11.919 -2,-18 -1,3.333 -2,6.667 -3,10 -0.46,-0.594 -0.63,-1.261 -0.5,-2 0.61,-4.981 2.11,-9.648 4.5,-14 1.27,7.562 1.93,15.229 2,23 1.35,1.966 2.85,2.299 4.5,1 z"
       id="path12" />
  </g>
  <g
     id="g13"
     transform="translate(-995.8454,-60.298897)">
    <path
       style="opacity:1"
       fill="#020f41"
       d="m 1315.5,236.5 c 2.22,3.219 3.38,6.886 3.5,11 0.82,8.177 0.66,16.177 -0.5,24 0.6,-11.83 -0.4,-23.497 -3,-35 z"
       id="path13" />
  </g>
  <g
     id="g14"
     transform="translate(-995.8454,-60.298897)">
    <path
       style="opacity:1"
       fill="#f5f5ef"
       d="m 1247.5,211.5 c -0.24,0.597 -0.74,0.93 -1.5,1 -14.09,-6.747 -28.59,-8.913 -43.5,-6.5 -4.9,0.522 -9.57,1.855 -14,4 -4.05,3.716 -8.38,7.05 -13,10 -4.45,0.579 -8.78,0.079 -13,-1.5 -13.62,5.116 -16.79,14.116 -9.5,27 -0.49,9.119 1.18,17.785 5,26 4.21,3.248 7.04,7.415 8.5,12.5 4.73,0.962 8.57,-0.538 11.5,-4.5 0.38,0.556 0.88,0.889 1.5,1 -3.44,3.946 -7.78,5.779 -13,5.5 -2.14,-5.771 -5.64,-10.605 -10.5,-14.5 -3.73,-8.944 -5.4,-18.277 -5,-28 -6.11,-10.961 -3.61,-19.461 7.5,-25.5 5.46,-0.464 10.79,-0.131 16,1 4.62,-2.95 8.95,-6.284 13,-10 20.35,-7.851 40.35,-7.018 60,2.5 z"
       id="path14" />
  </g>
  <g
     id="g15"
     transform="translate(-995.8454,-60.298897)">
    <path
       style="opacity:1"
       fill="#fef6e3"
       d="m 1247.5,211.5 c 19.19,5.606 38.52,10.773 58,15.5 3.86,2.696 7.19,5.863 10,9.5 2.6,11.503 3.6,23.17 3,35 0,2.333 0,4.667 0,7 -1.65,1.299 -3.15,0.966 -4.5,-1 -0.07,-7.771 -0.73,-15.438 -2,-23 -2.39,4.352 -3.89,9.019 -4.5,14 -1.52,4.259 -2.52,8.759 -3,13.5 1.53,5.757 2.03,11.59 1.5,17.5 -3.63,6.894 -5.63,14.227 -6,22 -1.56,2.764 -3.73,3.431 -6.5,2 3.15,-4.484 3.65,-9.151 1.5,-14 -2.05,4.154 -3.72,8.487 -5,13 -2.17,1.964 -4.5,2.298 -7,1 2.53,-8.291 4.7,-16.791 6.5,-25.5 -1.65,-7.306 -4.65,-13.973 -9,-20 -1.33,-0.667 -2.67,-0.667 -4,0 -4.9,4.739 -10.24,8.906 -16,12.5 -4.24,-2.285 -8.57,-4.285 -13,-6 -5.47,-1.851 -10.97,-2.184 -16.5,-1 -0.33,7 -0.67,14 -1,21 -1.22,4.115 -3.22,7.782 -6,11 -1.08,2.563 -1.58,5.229 -1.5,8 -3.33,1.798 -7,2.464 -11,2 4.78,-13.157 1.28,-23.49 -10.5,-31 -1.07,-4.883 -2.74,-9.55 -5,-14 -5.47,-2.573 -10.97,-2.573 -16.5,0 -0.62,-0.111 -1.12,-0.444 -1.5,-1 -2.93,3.962 -6.77,5.462 -11.5,4.5 -1.46,-5.085 -4.29,-9.252 -8.5,-12.5 -3.82,-8.215 -5.49,-16.881 -5,-26 -7.29,-12.884 -4.12,-21.884 9.5,-27 4.22,1.579 8.55,2.079 13,1.5 4.62,-2.95 8.95,-6.284 13,-10 4.43,-2.145 9.1,-3.478 14,-4 14.91,-2.413 29.41,-0.247 43.5,6.5 0.76,-0.07 1.26,-0.403 1.5,-1 z"
       id="path15" />
  </g>
  <g
     id="g16"
     transform="translate(-995.8454,-60.298897)">
    <path
       style="opacity:1"
       fill="#0d1a49"
       d="m 1247.5,284.5 c -1.03,0.749 -2.2,1.415 -3.5,2 -1.7,-1.233 -3.7,-1.9 -6,-2 -1.83,0.333 -3.67,0.667 -5.5,1 -0.8,6.617 -1.3,13.283 -1.5,20 -3.14,5.939 -5.97,11.939 -8.5,18 -0.08,-2.771 0.42,-5.437 1.5,-8 2.78,-3.218 4.78,-6.885 6,-11 0.33,-7 0.67,-14 1,-21 5.53,-1.184 11.03,-0.851 16.5,1 z"
       id="path16" />
  </g>
  <g
     id="g17"
     transform="translate(-995.8454,-60.298897)">
    <path
       style="opacity:1"
       fill="#ab2830"
       d="m 1388.5,151.5 c 0,75 0,150 0,225 -101.83,0.333 -203.5,-10e-4 -305,-1 101.33,0 202.67,0 304,0 0,-70 0,-140 0,-210 -0.32,-4.863 0.01,-9.53 1,-14 z"
       id="path17" />
  </g>
  <g
     id="g18"
     transform="translate(-995.8454,-60.298897)">
    <path
       style="opacity:1"
       fill="#090000"
       d="m 1397.5,387.5 c -104.6,0.998 -209.26,1.331 -314,1 103.64,-0.671 207.97,-1.338 313,-2 0.61,0.124 0.94,0.457 1,1 z"
       id="path18" />
  </g>
  <rect
     style="fill:none"
     id="rect75"
     width="471.42764"
     height="460.46429"
     x="0"
     y="0" />
</svg>
