<?xml version="1.0" encoding="UTF-8" standalone="no"?>
<svg
   version="1.1"
   width="462.29147"
   height="380.0658"
   style="clip-rule:evenodd;fill-rule:evenodd;image-rendering:optimizeQuality;shape-rendering:geometricPrecision;text-rendering:geometricPrecision"
   id="svg68"
   sodipodi:docname="ChatGPT Image Aug 9, 2025, 02_31_31 PM.svg"
   xmlns:inkscape="http://www.inkscape.org/namespaces/inkscape"
   xmlns:sodipodi="http://sodipodi.sourceforge.net/DTD/sodipodi-0.dtd"
   xmlns="http://www.w3.org/2000/svg"
   xmlns:svg="http://www.w3.org/2000/svg">
  <defs
     id="defs68" />
  <sodipodi:namedview
     id="namedview68"
     pagecolor="#ffffff"
     bordercolor="#000000"
     borderopacity="0.25"
     inkscape:showpageshadow="2"
     inkscape:pageopacity="0.0"
     inkscape:pagecheckerboard="0"
     inkscape:deskcolor="#d1d1d1">
    <inkscape:page
       x="0"
       y="0"
       width="462.29147"
       height="380.0658"
       id="page2"
       margin="0"
       bleed="0" />
  </sodipodi:namedview>
  <g
     id="g31"
     transform="translate(-87.707481,-520.76318)">
    <path
       style="opacity:1"
       fill="#3a241e"
       d="m 247.5,576.5 c 5.031,-0.32 9.697,0.847 14,3.5 41.54,23.237 61.707,58.737 60.5,106.5 -2.02,10.767 -3.52,21.6 -4.5,32.5 -1.296,6.397 0.704,11.397 6,15 6.054,0.726 10.888,-1.441 14.5,-6.5 2.377,-3.588 4.877,-7.088 7.5,-10.5 2.667,-2 5.333,-2 8,0 4.045,4.582 7.211,9.749 9.5,15.5 10.883,27.242 11.216,54.576 1,82 -21.25,39.644 -54.583,59.644 -100,60 -39.278,-1.463 -69.611,-18.463 -91,-51 -19.782,-41.86 -14.782,-80.527 15,-116 18.162,-18.154 34.829,-37.487 50,-58 12.317,-21.058 14.484,-43.058 6.5,-66 0.167,-1.333 0.333,-2.667 0.5,-4 1.045,-0.873 1.878,-1.873 2.5,-3 z"
       id="path31" />
  </g>
  <g
     id="g32"
     transform="translate(-87.707481,-520.76318)">
    <path
       style="opacity:1"
       fill="#5fa5e6"
       d="m 419.5,721.5 c -0.06,-0.543 -0.393,-0.876 -1,-1 -1.326,14.828 -1.326,29.495 0,44 6.937,7.438 14.103,14.771 21.5,22 0.997,7.333 -2.17,10.166 -9.5,8.5 -4.182,-4.015 -8.182,-8.182 -12,-12.5 -0.831,7.645 -1.331,15.312 -1.5,23 -0.758,2.41 -2.425,3.41 -5,3 -2.667,0.333 -4.667,-0.667 -6,-3 -0.169,-7.688 -0.669,-15.355 -1.5,-23 -3.818,4.318 -7.818,8.485 -12,12.5 -7.33,1.666 -10.497,-1.167 -9.5,-8.5 7.333,-7.333 14.667,-14.667 22,-22 0.833,-14.345 0.666,-28.678 -0.5,-43 -9.836,6.086 -19.836,11.919 -30,17.5 -6.305,-0.006 -8.471,-3.172 -6.5,-9.5 9.899,-6.895 20.065,-13.395 30.5,-19.5 -11.585,-7.249 -23.418,-14.082 -35.5,-20.5 -8.803,2.768 -17.637,5.434 -26.5,8 -3.901,-0.401 -5.901,-2.568 -6,-6.5 0.143,-2.151 1.143,-3.818 3,-5 4.967,-1.933 9.967,-3.767 15,-5.5 -5.87,-3.7 -11.87,-7.2 -18,-10.5 -4.28,-5.308 -3.113,-9.141 3.5,-11.5 6.949,3.449 13.783,7.115 20.5,11 0.333,-0.333 0.667,-0.667 1,-1 -2.559,-5.119 -4.559,-10.452 -6,-16 2.208,-6.745 6.041,-7.745 11.5,-3 3.47,10.077 7.137,20.077 11,30 10.915,6.207 21.749,12.541 32.5,19 1.166,-15.322 1.333,-30.656 0.5,-46 -7,-7 -14,-14 -21,-21 -2.966,-6.923 -0.799,-10.423 6.5,-10.5 5.134,4.133 9.968,8.633 14.5,13.5 0.333,-8 0.667,-16 1,-24 3.667,-4 7.333,-4 11,0 0.169,7.688 0.669,15.355 1.5,23 4.485,-3.985 8.818,-8.151 13,-12.5 7.285,-0.962 10.118,2.205 8.5,9.5 -7.333,7.333 -14.667,14.667 -22,22 -0.5,15.33 -0.667,30.663 -0.5,46 12.057,-5.865 23.724,-12.532 35,-20 3.462,-8.887 6.629,-17.887 9.5,-27 2.942,-5.492 6.609,-6.158 11,-2 0.167,1.167 0.333,2.333 0.5,3.5 -1.536,5.921 -3.036,11.754 -4.5,17.5 6.085,-3.627 12.252,-7.127 18.5,-10.5 5.301,-1.69 8.301,0.143 9,5.5 0.063,1.981 -0.604,3.648 -2,5 -6.542,3.702 -13.209,7.202 -20,10.5 6.135,2.454 12.468,4.454 19,6 4,3.667 4,7.333 0,11 -10.551,-1.066 -20.884,-3.399 -31,-7 -2,-0.667 -4,-0.667 -6,0 -10.5,6.082 -20.834,12.416 -31,19 11.667,6.833 23.333,13.667 35,20.5 10.807,-3.196 21.807,-5.029 33,-5.5 3.557,3.182 3.891,6.682 1,10.5 -5.981,1.607 -11.981,3.107 -18,4.5 6.768,3.772 13.268,7.939 19.5,12.5 1.833,7.5 -1,10.333 -8.5,8.5 -5.75,-3.626 -11.584,-7.126 -17.5,-10.5 0.692,4.754 2.025,9.421 4,14 1.167,6.833 -1.667,9.667 -8.5,8.5 -1.201,-0.903 -2.035,-2.069 -2.5,-3.5 -3.333,-9.333 -6.667,-18.667 -10,-28 -11.112,-6.804 -22.278,-13.471 -33.5,-20 z"
       id="path32" />
  </g>
  <g
     id="g33"
     transform="translate(-87.707481,-520.76318)">
    <path
       style="opacity:1"
       fill="#bcd5ee"
       d="m 419.5,721.5 c -0.996,14.157 -1.329,28.49 -1,43 -1.326,-14.505 -1.326,-29.172 0,-44 0.607,0.124 0.94,0.457 1,1 z"
       id="path33" />
  </g>
  <g
     id="g35"
     transform="translate(-87.707481,-520.76318)">
    <path
       style="opacity:1"
       fill="#fdb521"
       d="m 260.5,754.5 c 2.321,13.446 7.488,25.78 15.5,37 7.639,8.3 13.639,17.634 18,28 3.602,16.621 -1.898,29.121 -16.5,37.5 -23.556,4.851 -40.056,-3.983 -49.5,-26.5 -5.542,-20.497 -1.875,-39.163 11,-56 6.762,-7.267 13.928,-13.934 21.5,-20 z"
       id="path35" />
  </g>
  <g
     id="g36"
     transform="translate(-87.707481,-520.76318)">
    <path
       style="opacity:1"
       fill="#fe9c1d"
       d="m 273.5,757.5 c -0.271,-8.036 0.062,-16.036 1,-24 -1.779,-5.867 -5.445,-7.367 -11,-4.5 -2.646,2.802 -4.646,5.968 -6,9.5 -9.325,9.825 -18.825,19.492 -28.5,29 -17.805,24.635 -20.138,50.635 -7,78 1.977,2.812 4.144,5.478 6.5,8 -21.328,-7.328 -37.161,-21.328 -47.5,-42 -3.247,-7.901 -5.747,-15.901 -7.5,-24 -0.646,-11.838 0.354,-23.505 3,-35 5.305,-15.601 13.471,-29.601 24.5,-42 17.864,-16.854 33.864,-35.187 48,-55 10.934,-19.882 14.768,-40.882 11.5,-63 30.301,19.687 46.968,47.687 50,84 -1.545,14.855 -3.211,29.689 -5,44.5 -0.774,15.224 6.393,23.724 21.5,25.5 9.816,-1.077 17.483,-5.744 23,-14 18.924,40.79 12.091,76.623 -20.5,107.5 -9,7.167 -19,12.167 -30,15 9.968,-16.575 10.468,-33.408 1.5,-50.5 -7,-9.667 -14,-19.333 -21,-29 -3.095,-5.794 -5.261,-11.794 -6.5,-18 z"
       id="path36" />
  </g>
  <g
     id="g37"
     transform="translate(-87.707481,-520.76318)">
    <path
       style="opacity:1"
       fill="#1f1421"
       d="m 273.5,757.5 c -0.845,-8.253 -1.345,-17.253 -1.5,-27 -2.373,-2.35 -4.873,-2.517 -7.5,-0.5 -2.198,3.023 -4.531,5.856 -7,8.5 1.354,-3.532 3.354,-6.698 6,-9.5 5.555,-2.867 9.221,-1.367 11,4.5 -0.938,7.964 -1.271,15.964 -1,24 z"
       id="path37" />
  </g>
  <g
     id="g38"
     transform="translate(-87.707481,-520.76318)">
    <path
       style="opacity:1"
       fill="#160e1e"
       d="m 176.5,752.5 c -2.646,11.495 -3.646,23.162 -3,35 -1.152,-7.251 -1.318,-15.251 -0.5,-24 0.512,-4.577 1.679,-8.244 3.5,-11 z"
       id="path38" />
  </g>
  <rect
     style="fill:none"
     id="rect76"
     width="462.2915"
     height="380.0658"
     x="0"
     y="0" />
</svg>
