<?xml version="1.0" encoding="UTF-8" standalone="no"?>
<svg
   version="1.1"
   width="350.82996"
   height="416.61053"
   style="clip-rule:evenodd;fill-rule:evenodd;image-rendering:optimizeQuality;shape-rendering:geometricPrecision;text-rendering:geometricPrecision"
   id="svg68"
   sodipodi:docname="ChatGPT Image Aug 9, 2025, 02_31_31 PM.svg"
   xmlns:inkscape="http://www.inkscape.org/namespaces/inkscape"
   xmlns:sodipodi="http://sodipodi.sourceforge.net/DTD/sodipodi-0.dtd"
   xmlns="http://www.w3.org/2000/svg"
   xmlns:svg="http://www.w3.org/2000/svg">
  <defs
     id="defs68" />
  <sodipodi:namedview
     id="namedview68"
     pagecolor="#ffffff"
     bordercolor="#000000"
     borderopacity="0.25"
     inkscape:showpageshadow="2"
     inkscape:pageopacity="0.0"
     inkscape:pagecheckerboard="0"
     inkscape:deskcolor="#d1d1d1">
    <inkscape:page
       x="0"
       y="0"
       width="350.82996"
       height="416.61053"
       id="page2"
       margin="0"
       bleed="0" />
  </sodipodi:namedview>
  <g
     id="g62"
     transform="translate(-599.33447,-520.76318)">
    <path
       style="opacity:1"
       fill="#3a241d"
       d="m 698.5,562.5 c 9.543,-1.158 18.043,1.176 25.5,7 8.985,13.728 6.818,25.228 -6.5,34.5 -12.328,4.916 -23.161,2.75 -32.5,-6.5 -1.504,-3.009 -3.004,-6.009 -4.5,-9 -15.727,2.56 -25.56,11.56 -29.5,27 -1.411,17.441 1.589,34.108 9,50 4.779,12.224 10.612,23.891 17.5,35 2.362,0.771 4.696,1.605 7,2.5 8.333,13.667 19.333,24.667 33,33 19.146,8.088 37.813,7.088 56,-3 5.791,-4.122 11.291,-8.622 16.5,-13.5 4.167,-5.5 8.333,-11 12.5,-16.5 2.215,-1.044 4.548,-1.71 7,-2 10.794,-18.754 18.961,-38.588 24.5,-59.5 1.419,-8.625 1.752,-17.292 1,-26 -3.814,-14.98 -13.314,-23.98 -28.5,-27 -0.942,0.108 -1.775,0.441 -2.5,1 -3.386,11.625 -11.219,17.292 -23.5,17 -17.82,-0.985 -25.654,-10.318 -23.5,-28 5.3,-12.571 14.8,-17.738 28.5,-15.5 7.556,1.282 13.223,5.282 17,12 29.692,3.854 44.692,20.687 45,50.5 -0.219,17.492 -4.052,34.158 -11.5,50 -4.512,10.525 -9.679,20.692 -15.5,30.5 3.81,5.009 3.977,10.176 0.5,15.5 -9.772,14.105 -21.272,26.605 -34.5,37.5 -11.932,8.8 -25.265,13.967 -40,15.5 -0.167,20.336 0,40.669 0.5,61 1.105,29.403 15.605,48.57 43.5,57.5 24.099,5.438 44.266,-1.062 60.5,-19.5 8.183,-12.064 12.017,-25.397 11.5,-40 -22.021,-3.519 -35.521,-16.186 -40.5,-38 -1.952,-27.372 10.214,-44.872 36.5,-52.5 32.688,-3.006 51.355,11.661 56,44 -1.492,25.496 -14.659,41.329 -39.5,47.5 -0.739,41.064 -21.239,65.231 -61.5,72.5 -44.314,1.26 -70.481,-19.906 -78.5,-63.5 -0.5,-23.331 -0.667,-46.664 -0.5,-70 -12.869,-2.434 -24.535,-7.601 -35,-15.5 -13.666,-10.994 -25.166,-23.827 -34.5,-38.5 -0.978,-4.4 -0.478,-8.567 1.5,-12.5 -11.76,-20.274 -20.593,-41.774 -26.5,-64.5 -4.191,-17.881 -1.525,-34.547 8,-50 9.351,-9.925 20.851,-15.425 34.5,-16.5 3.397,-6.905 8.731,-11.405 16,-13.5 z"
       id="path62" />
  </g>
  <g
     id="g63"
     transform="translate(-599.33447,-520.76318)">
    <path
       style="opacity:1"
       fill="#7fb7d7"
       d="m 862.5,754.5 c 19.043,-1.109 31.876,7.224 38.5,25 3.126,21.6 -5.707,35.433 -26.5,41.5 -20.492,2.009 -33.658,-6.825 -39.5,-26.5 -1.97,-21.076 7.196,-34.409 27.5,-40 z"
       id="path63" />
  </g>
  <g
     id="g64"
     transform="translate(-599.33447,-520.76318)">
    <path
       style="opacity:1"
       fill="#3d241d"
       d="m 861.5,769.5 c 12.486,-2.18 20.986,2.486 25.5,14 0.988,16.012 -6.512,23.845 -22.5,23.5 -12.029,-3.21 -17.196,-11.043 -15.5,-23.5 2.124,-6.643 6.291,-11.31 12.5,-14 z"
       id="path64" />
  </g>
  <g
     id="g65"
     transform="translate(-599.33447,-520.76318)">
    <path
       style="opacity:1"
       fill="#5698d2"
       d="m 864.5,781.5 c 7.828,-1.007 10.994,2.326 9.5,10 -4,5.333 -8,5.333 -12,0 -1.139,-3.921 -0.305,-7.254 2.5,-10 z"
       id="path65" />
  </g>
  <g
     id="g66"
     transform="translate(-599.33447,-520.76318)">
    <path
       style="opacity:1"
       fill="#7c7677"
       d="m 676.5,715.5 c 0.397,-1.025 1.063,-1.192 2,-0.5 25.233,37.858 58.566,47.524 100,29 11.459,-7.792 21.292,-17.292 29.5,-28.5 0.718,-0.951 1.551,-1.117 2.5,-0.5 -44.53,63.116 -89.197,63.283 -134,0.5 z"
       id="path66" />
  </g>
  <g
     id="g67"
     transform="translate(-599.33447,-520.76318)">
    <path
       style="opacity:1"
       fill="#f1bf82"
       d="m 699.5,575.5 c 5.277,-0.569 10.277,0.265 15,2.5 4.84,6.621 3.506,11.621 -4,15 -6.509,1.759 -12.009,0.259 -16.5,-4.5 -0.667,-2.667 -0.667,-5.333 0,-8 1.73,-1.902 3.563,-3.569 5.5,-5 z"
       id="path67" />
  </g>
  <g
     id="g68"
     transform="translate(-599.33447,-520.76318)">
    <path
       style="opacity:1"
       fill="#f1bd81"
       d="m 774.5,575.5 c 5.277,-0.569 10.277,0.265 15,2.5 4.835,6.665 3.501,11.665 -4,15 -4.456,0.867 -8.789,0.534 -13,-1 -5.701,-6.289 -5.035,-11.789 2,-16.5 z"
       id="path68" />
  </g>
  <rect
     style="fill:none"
     id="rect77"
     width="350.82993"
     height="416.61053"
     x="0"
     y="0" />
</svg>
