<?xml version="1.0" encoding="UTF-8" standalone="no"?>
<svg
   version="1.1"
   width="356.31165"
   height="420.26501"
   style="clip-rule:evenodd;fill-rule:evenodd;image-rendering:optimizeQuality;shape-rendering:geometricPrecision;text-rendering:geometricPrecision"
   id="svg68"
   sodipodi:docname="ChatGPT Image Aug 9, 2025, 02_31_31 PM.svg"
   xmlns:inkscape="http://www.inkscape.org/namespaces/inkscape"
   xmlns:sodipodi="http://sodipodi.sourceforge.net/DTD/sodipodi-0.dtd"
   xmlns="http://www.w3.org/2000/svg"
   xmlns:svg="http://www.w3.org/2000/svg">
  <defs
     id="defs68">
    <clipPath
       clipPathUnits="userSpaceOnUse"
       id="clipPath69">
      <rect
         style="fill:none"
         id="rect70"
         width="370.92957"
         height="398.33817"
         x="137.04294"
         y="80.398529" />
    </clipPath>
    <clipPath
       clipPathUnits="userSpaceOnUse"
       id="clipPath70">
      <rect
         style="fill:none"
         id="rect71"
         width="370.92957"
         height="398.33817"
         x="137.04294"
         y="80.398529" />
    </clipPath>
  </defs>
  <sodipodi:namedview
     id="namedview68"
     pagecolor="#ffffff"
     bordercolor="#000000"
     borderopacity="0.25"
     inkscape:showpageshadow="2"
     inkscape:pageopacity="0.0"
     inkscape:pagecheckerboard="0"
     inkscape:deskcolor="#d1d1d1">
    <inkscape:page
       x="0"
       y="0"
       width="356.31165"
       height="420.26501"
       id="page2"
       margin="0"
       bleed="0" />
  </sodipodi:namedview>
  <g
     id="g19"
     transform="translate(-137.04294,-69.435089)">
    <path
       style="opacity:1"
       fill="#3b251e"
       d="m 381.5,99.5 c 21.206,-0.2955 32.206,10.205 33,31.5 0.183,7.92 -1.484,15.42 -5,22.5 0.667,0.333 1.333,0.667 2,1 11.29,-3.602 21.957,-2.435 32,3.5 10.059,11.008 10.559,22.508 1.5,34.5 -9.003,10.09 -19.837,17.59 -32.5,22.5 -12.289,4.873 -24.622,9.539 -37,14 17.37,19.036 20.87,40.536 10.5,64.5 -9.025,18.67 -20.025,36.004 -33,52 -20.015,25.357 -41.515,49.523 -64.5,72.5 -12.761,11.874 -26.428,22.541 -41,32 -33.855,16.381 -50.188,5.548 -49,-32.5 0.552,-20.313 3.385,-40.313 8.5,-60 8.593,-35.777 19.593,-70.777 33,-105 4.905,-10.815 10.572,-21.148 17,-31 13.512,-17.295 31.345,-25.128 53.5,-23.5 -6.088,-12.263 -10.588,-25.096 -13.5,-38.5 -3.095,-13.037 0.072,-24.204 9.5,-33.5 16.129,-7.411 29.962,-4.245 41.5,9.5 5.217,-17.711 16.384,-29.711 33.5,-36 z"
       id="path19" />
  </g>
  <g
     id="g20"
     transform="translate(-137.04294,-69.435089)">
    <path
       style="opacity:1"
       fill="#40281e"
       d="m 225.5,335.5 c 0.172,0.992 -0.162,1.658 -1,2 -1.945,4.034 -3.612,8.867 -5,14.5 -1.534,3.034 -3.868,5.201 -7,6.5 -1.602,-1.101 -2.602,-2.601 -3,-4.5 1.776,-8.273 3.943,-16.439 6.5,-24.5 1.786,1.599 3.953,2.433 6.5,2.5 -1.333,0.333 -2.667,0.667 -4,1 1.941,0.743 3.774,0.576 5.5,-0.5 0.232,1.237 0.732,2.237 1.5,3 z"
       id="path20" />
  </g>
  <g
     id="g21"
     clip-path="url(#clipPath70)"
     transform="translate(-137.04294,-69.435089)">
    <path
       style="opacity:1"
       fill="#fe9c1d"
       d="m 224.5,337.5 c 0.838,-0.342 1.172,-1.008 1,-2 0.318,-2.805 1.485,-5.139 3.5,-7 8.62,2.893 16.786,6.727 24.5,11.5 6.608,0.336 9.108,-2.831 7.5,-9.5 -8.413,-5.956 -17.58,-10.456 -27.5,-13.5 -1.016,-0.519 -1.682,-1.353 -2,-2.5 6.019,-20.726 13.019,-41.059 21,-61 13.892,2.111 26.559,7.278 38,15.5 5.516,1.925 8.849,0.091 10,-5.5 -0.348,-2.197 -1.348,-4.03 -3,-5.5 -11.927,-7.296 -24.594,-12.963 -38,-17 16.629,-29.768 40.962,-38.101 73,-25 14.973,5.736 27.807,14.569 38.5,26.5 7.642,11.667 9.642,24.334 6,38 -7.604,19.883 -18.27,37.883 -32,54 -11.164,-9.81 -23.831,-17.143 -38,-22 -5.138,1.476 -6.805,4.81 -5,10 0.833,0.833 1.667,1.667 2.5,2.5 11.393,3.861 21.726,9.527 31,17 1.507,0.837 2.007,2.004 1.5,3.5 -14.924,18.261 -30.59,35.928 -47,53 -7.621,-6.283 -15.787,-11.783 -24.5,-16.5 -7.028,-0.459 -9.362,2.708 -7,9.5 7.637,4.978 14.97,10.312 22,16 -14.869,17.039 -32.869,29.539 -54,37.5 -4.329,1.151 -8.162,0.318 -11.5,-2.5 -1.725,-3.174 -3.058,-6.507 -4,-10 -0.808,-12.035 -0.475,-24.035 1,-36 3.21,-19.883 7.377,-39.55 12.5,-59 z"
       id="path21" />
  </g>
  <g
     id="g22"
     clip-path="url(#clipPath69)"
     transform="translate(-137.04294,-69.435089)">
    <path
       style="opacity:1"
       fill="#87a83a"
       d="m 381.5,112.5 c 13.334,-1.172 20.334,4.994 21,18.5 -0.689,8.4 -3.189,16.233 -7.5,23.5 -6.182,9.027 -12.849,17.694 -20,26 -0.448,6.875 2.718,9.375 9.5,7.5 5.686,-6.351 12.019,-12.017 19,-17 9.444,-5.424 19.444,-7.091 30,-5 5.175,4.199 6.341,9.365 3.5,15.5 -4.474,6.172 -9.974,11.339 -16.5,15.5 -17.951,9.039 -36.617,16.206 -56,21.5 -12.354,-7.343 -25.354,-13.343 -39,-18 -7.786,-14.526 -13.286,-29.859 -16.5,-46 -1.845,-16.164 4.988,-22.331 20.5,-18.5 4.219,2.552 7.386,6.052 9.5,10.5 2.301,7.259 4.134,14.593 5.5,22 2.367,1.895 5.034,2.395 8,1.5 1.833,-0.5 3,-1.667 3.5,-3.5 -1.304,-19.435 4.863,-35.935 18.5,-49.5 2.398,-1.524 4.731,-3.024 7,-4.5 z"
       id="path22" />
  </g>
  <rect
     style="fill:none"
     id="rect68"
     width="425.74673"
     height="425.74673"
     x="-36.544777"
     y="0" />
  <rect
     style="fill:none"
     id="rect72"
     width="407.47437"
     height="409.30157"
     x="-9.1361847"
     y="9.1362" />
  <rect
     style="fill:none"
     id="rect73"
     width="356.31165"
     height="420.26501"
     x="0"
     y="0" />
</svg>
