<?xml version="1.0" encoding="UTF-8" standalone="no"?>
<svg
   version="1.1"
   width="444.0191"
   height="325.2486"
   style="clip-rule:evenodd;fill-rule:evenodd;image-rendering:optimizeQuality;shape-rendering:geometricPrecision;text-rendering:geometricPrecision"
   id="svg68"
   sodipodi:docname="ChatGPT Image Aug 9, 2025, 02_31_31 PM.svg"
   xmlns:inkscape="http://www.inkscape.org/namespaces/inkscape"
   xmlns:sodipodi="http://sodipodi.sourceforge.net/DTD/sodipodi-0.dtd"
   xmlns="http://www.w3.org/2000/svg"
   xmlns:svg="http://www.w3.org/2000/svg">
  <defs
     id="defs68" />
  <sodipodi:namedview
     id="namedview68"
     pagecolor="#ffffff"
     bordercolor="#000000"
     borderopacity="0.25"
     inkscape:showpageshadow="2"
     inkscape:pageopacity="0.0"
     inkscape:pagecheckerboard="0"
     inkscape:deskcolor="#d1d1d1">
    <inkscape:page
       x="0"
       y="0"
       width="444.0191"
       height="325.2486"
       id="page2"
       margin="0"
       bleed="0" />
  </sodipodi:namedview>
  <g
     id="g34"
     transform="translate(-1004.9816,-564.61694)">
    <path
       style="opacity:1"
       fill="#220e07"
       d="m 1058.5,629.5 c 56.5,-0.667 113.17,-1 170,-1 57.41,-0.163 114.75,0.337 172,1.5 1.54,1.579 2.71,3.413 3.5,5.5 0.67,64.333 0.67,128.667 0,193 -0.66,1.824 -1.83,3.157 -3.5,4 -0.04,-1.256 0.46,-2.256 1.5,-3 0.67,-65 0.67,-130 0,-195 -0.47,-1.431 -1.3,-2.597 -2.5,-3.5 -113.59,-1.496 -227.25,-1.996 -341,-1.5 z"
       id="path34" />
  </g>
  <g
     id="g39"
     transform="translate(-1004.9816,-564.61694)">
    <path
       style="opacity:1"
       fill="#3f2920"
       d="m 1058.5,629.5 c 113.75,-0.496 227.41,0.004 341,1.5 1.2,0.903 2.03,2.069 2.5,3.5 0.67,65 0.67,130 0,195 -1.04,0.744 -1.54,1.744 -1.5,3 -114.29,1.163 -228.63,1.329 -343,0.5 -1.54,-1.77 -2.87,-2.937 -4,-3.5 -1.17,-64.832 -1.33,-129.832 -0.5,-195 1.08,-2.579 2.91,-4.246 5.5,-5 z"
       id="path39" />
  </g>
  <g
     id="g40"
     transform="translate(-1004.9816,-564.61694)">
    <path
       style="opacity:1"
       fill="#9ede86"
       d="m 1391.5,640.5 c 1,60.498 1.33,121.164 1,182 -109,0 -218,0 -327,0 0,-60.667 0,-121.333 0,-182 108.67,0 217.33,0 326,0 z"
       id="path40" />
  </g>
  <g
     id="g41"
     transform="translate(-1004.9816,-564.61694)">
    <path
       style="opacity:1"
       fill="#8dbc73"
       d="m 1066.5,641.5 c 108,0 216,0 324,0 0,60 0,120 0,180 -108,0 -216,0 -324,0 0,-60 0,-120 0,-180 z"
       id="path41" />
  </g>
  <g
     id="g42"
     transform="translate(-1004.9816,-564.61694)">
    <path
       style="opacity:1"
       fill="#381717"
       d="m 1343.5,804.5 c -76.6,1.163 -153.26,1.33 -230,0.5 -0.83,-0.833 -1.67,-1.667 -2.5,-2.5 -0.25,-4.923 -1.42,-9.589 -3.5,-14 -0.07,-0.438 0.1,-0.772 0.5,-1 0.67,1.333 1.33,2.667 2,4 0.71,4.064 1.88,7.897 3.5,11.5 76.83,0.167 153.5,0.667 230,1.5 z"
       id="path42" />
  </g>
  <g
     id="g43"
     transform="translate(-1004.9816,-564.61694)">
    <path
       style="opacity:1"
       fill="#9bdd83"
       d="m 1082.5,690.5 c -0.32,28.377 0.02,56.711 1,85 -0.62,-0.111 -1.12,-0.444 -1.5,-1 -0.83,-28.17 -0.66,-56.17 0.5,-84 z"
       id="path43" />
  </g>
  <g
     id="g44"
     transform="translate(-1004.9816,-564.61694)">
    <path
       style="opacity:1"
       fill="#3e251e"
       d="m 1113.5,659.5 c 76.33,-0.167 152.67,0 229,0.5 1.2,0.903 2.03,2.069 2.5,3.5 0.46,-0.594 0.63,-1.261 0.5,-2 1.23,14.734 9.23,23.234 24,25.5 1.79,0.785 3.29,1.951 4.5,3.5 0.67,27.333 0.67,54.667 0,82 -0.47,1.431 -1.3,2.597 -2.5,3.5 -15.88,1.213 -24.38,9.713 -25.5,25.5 -0.38,1.442 -1.21,2.442 -2.5,3 -76.5,-0.833 -153.17,-1.333 -230,-1.5 -1.62,-3.603 -2.79,-7.436 -3.5,-11.5 -0.67,-1.333 -1.33,-2.667 -2,-4 -0.4,0.228 -0.57,0.562 -0.5,1 -6.05,-7.702 -14.05,-12.035 -24,-13 -0.98,-28.289 -1.32,-56.623 -1,-85 1.13,-0.622 2.13,-1.455 3,-2.5 15.36,-1.687 23.52,-10.187 24.5,-25.5 0.76,-1.563 1.93,-2.563 3.5,-3 z"
       id="path44" />
  </g>
  <g
     id="g45"
     transform="translate(-1004.9816,-564.61694)">
    <path
       style="opacity:1"
       fill="#504d2e"
       d="m 1257.5,791.5 c 25.49,0.998 51.16,1.331 77,1 -25.84,1.329 -51.84,1.329 -78,0 0.12,-0.607 0.46,-0.94 1,-1 z"
       id="path45" />
  </g>
  <g
     id="g46"
     transform="translate(-1004.9816,-564.61694)">
    <path
       style="opacity:1"
       fill="#514e2f"
       d="m 1199.5,791.5 c 0.54,0.06 0.88,0.393 1,1 -26.5,1.329 -52.83,1.329 -79,0 0.33,0 0.67,0 1,0 25.84,0.331 51.51,-0.002 77,-1 z"
       id="path46" />
  </g>
  <g
     id="g47"
     transform="translate(-1004.9816,-564.61694)">
    <path
       style="opacity:1"
       fill="#82c85a"
       d="m 1334.5,788.5 c 0,1.333 0,2.667 0,4 -25.84,0.331 -51.51,-0.002 -77,-1 0.89,-0.61 1.89,-0.943 3,-1 24.16,0.998 48.49,1.331 73,1 -0.34,-2.048 -0.01,-3.048 1,-3 z"
       id="path47" />
  </g>
  <g
     id="g48"
     transform="translate(-1004.9816,-564.61694)">
    <path
       style="opacity:1"
       fill="#81c85b"
       d="m 1197.5,790.5 c 0.67,0.333 1.33,0.667 2,1 -25.49,0.998 -51.16,1.331 -77,1 24.9,-0.676 49.9,-1.342 75,-2 z"
       id="path48" />
  </g>
  <g
     id="g49"
     transform="translate(-1004.9816,-564.61694)">
    <path
       style="opacity:1"
       fill="#82c75b"
       d="m 1358.5,698.5 c 1,0 2,0 3,0 0,22.333 0,44.667 0,67 -2.06,0.017 -4.06,0.35 -6,1 -0.44,0.065 -0.77,-0.101 -1,-0.5 1.85,-1.128 3.85,-1.628 6,-1.5 0.64,-22.231 -0.03,-44.231 -2,-66 z"
       id="path49" />
  </g>
  <g
     id="g50"
     transform="translate(-1004.9816,-564.61694)">
    <path
       style="opacity:1"
       fill="#81c459"
       d="m 1097.5,698.5 c 2.35,0.61 2.02,0.944 -1,1 -0.33,21.677 0,43.344 1,65 1.99,0.368 2.99,1.034 3,2 -1.43,0.079 -2.76,-0.254 -4,-1 -0.33,-11.167 -0.67,-22.333 -1,-33.5 0,-11.521 0.67,-22.687 2,-33.5 z"
       id="path50" />
  </g>
  <g
     id="g51"
     transform="translate(-1004.9816,-564.61694)">
    <path
       style="opacity:1"
       fill="#74a24d"
       d="m 1197.5,790.5 c -25.1,0.658 -50.1,1.324 -75,2 -0.33,0 -0.67,0 -1,0 -1.12,-9.078 -5.46,-16.245 -13,-21.5 -2.89,-1.274 -5.56,-2.774 -8,-4.5 -0.01,-0.966 -1.01,-1.632 -3,-2 -1,-21.656 -1.33,-43.323 -1,-65 3.02,-0.056 3.35,-0.39 1,-1 13.92,-4.258 22.25,-13.591 25,-28 25.67,-0.167 51.34,0 77,0.5 -25.16,20.867 -33.99,47.367 -26.5,79.5 3.87,16.1 12.04,29.433 24.5,40 z"
       id="path51" />
  </g>
  <g
     id="g52"
     transform="translate(-1004.9816,-564.61694)">
    <path
       style="opacity:1"
       fill="#3f251e"
       d="m 1126.5,713.5 c 15.19,-0.971 22.69,6.029 22.5,21 -2.84,11.176 -10.01,16.01 -21.5,14.5 -12.55,-5.661 -16.05,-14.827 -10.5,-27.5 2.77,-3.283 5.94,-5.95 9.5,-8 z"
       id="path52" />
  </g>
  <g
     id="g53"
     transform="translate(-1004.9816,-564.61694)">
    <path
       style="opacity:1"
       fill="#74a34e"
       d="m 1224.5,673.5 c 25.5,2.985 41.66,16.985 48.5,42 5.44,27.371 -2.73,49.538 -24.5,66.5 -13.38,8.562 -26.71,8.562 -40,0 -22.99,-18.316 -30.83,-41.816 -23.5,-70.5 6.87,-19.373 20.04,-32.04 39.5,-38 z"
       id="path53" />
  </g>
  <g
     id="g54"
     transform="translate(-1004.9816,-564.61694)">
    <path
       style="opacity:1"
       fill="#3e251e"
       d="m 1225.5,687.5 c 6.67,-0.667 9.67,2.333 9,9 10.46,1.619 14.96,7.619 13.5,18 -5.86,3.486 -10.03,1.986 -12.5,-4.5 -6.72,-2.851 -12.55,-1.685 -17.5,3.5 -1.99,5.792 -0.16,9.625 5.5,11.5 22.72,0.619 30.88,11.785 24.5,33.5 -3.1,5.132 -7.6,8.132 -13.5,9 -0.14,7.298 -3.64,9.632 -10.5,7 -1.2,-2.177 -1.7,-4.511 -1.5,-7 -9.84,-0.667 -15.84,-5.834 -18,-15.5 0.56,-5.553 3.56,-7.553 9,-6 2.22,3.458 4.88,6.458 8,9 3.67,0.667 7.33,0.667 11,0 7.04,-4.186 7.71,-9.186 2,-15 -5.24,-1.324 -10.57,-2.324 -16,-3 -13.18,-6.513 -17.01,-16.68 -11.5,-30.5 3.74,-5.574 8.9,-8.908 15.5,-10 -0.58,-3.612 0.42,-6.612 3,-9 z"
       id="path54" />
  </g>
  <g
     id="g55"
     transform="translate(-1004.9816,-564.61694)">
    <path
       style="opacity:1"
       fill="#74a34e"
       d="m 1358.5,698.5 c 1.97,21.769 2.64,43.769 2,66 -2.15,-0.128 -4.15,0.372 -6,1.5 0.23,0.399 0.56,0.565 1,0.5 -9.72,4.725 -16.72,12.058 -21,22 -1.01,-0.048 -1.34,0.952 -1,3 -24.51,0.331 -48.84,-0.002 -73,-1 22.23,-21.9 30.06,-48.233 23.5,-79 -4.21,-16.592 -13.04,-30.092 -26.5,-40.5 25.66,-0.5 51.33,-0.667 77,-0.5 2.89,13.799 10.89,23.133 24,28 z"
       id="path55" />
  </g>
  <g
     id="g56"
     transform="translate(-1004.9816,-564.61694)">
    <path
       style="opacity:1"
       fill="#3e251e"
       d="m 1320.5,713.5 c 15.65,-0.181 22.82,7.486 21.5,23 -5.96,12.541 -15.12,15.708 -27.5,9.5 -9.33,-9.708 -9.33,-19.374 0,-29 2.23,-0.941 4.23,-2.108 6,-3.5 z"
       id="path56" />
  </g>
  <g
     id="g57"
     transform="translate(-1004.9816,-564.61694)">
    <path
       style="opacity:1"
       fill="#280007"
       d="m 1113.5,659.5 c 0,-0.333 0,-0.667 0,-1 0.33,0 0.67,0 1,0 76.33,-0.167 152.67,0 229,0.5 0.88,0.708 1.55,1.542 2,2.5 0.13,0.739 -0.04,1.406 -0.5,2 -0.47,-1.431 -1.3,-2.597 -2.5,-3.5 -76.33,-0.5 -152.67,-0.667 -229,-0.5 z"
       id="path57" />
  </g>
  <g
     id="g58"
     transform="translate(-1004.9816,-564.61694)">
    <path
       style="opacity:1"
       fill="#9dde84"
       d="m 1114.5,658.5 c -0.33,0 -0.67,0 -1,0 -1.24,-0.31 -1.24,-0.81 0,-1.5 76.33,-0.667 152.67,-0.667 229,0 -76.17,0.167 -152.17,0.667 -228,1.5 z"
       id="path58" />
  </g>
  <g
     id="g59"
     transform="translate(-1004.9816,-564.61694)">
    <path
       style="opacity:1"
       fill="#2c080c"
       d="m 1392.5,822.5 c 0.33,-60.836 0,-121.502 -1,-182 -108.5,-0.833 -217.17,-1.333 -326,-1.5 109,-0.667 218,-0.667 327,0 1.33,61.264 1.33,122.431 0,183.5 z"
       id="path59" />
  </g>
  <g
     id="g60"
     transform="translate(-1004.9816,-564.61694)">
    <path
       style="opacity:1"
       fill="#2d070b"
       d="m 1065.5,822.5 c 108.5,0.833 217.17,1.333 326,1.5 -109,0.833 -218,0.667 -327,-0.5 0.12,-0.607 0.46,-0.94 1,-1 z"
       id="path60" />
  </g>
  <g
     id="g61"
     transform="translate(-1004.9816,-564.61694)">
    <path
       style="opacity:1"
       fill="#2c1209"
       d="m 1400.5,832.5 c -0.56,1.29 -1.56,2.123 -3,2.5 -113,0.667 -226,0.667 -339,0 -2.58,-1.076 -4.25,-2.909 -5,-5.5 1.13,0.563 2.46,1.73 4,3.5 114.37,0.829 228.71,0.663 343,-0.5 z"
       id="path61" />
  </g>
  <rect
     style="fill:none"
     id="rect78"
     width="444.01913"
     height="325.2486"
     x="0"
     y="0" />
</svg>
