<?xml version="1.0" encoding="UTF-8" standalone="no"?>
<svg
   version="1.1"
   width="363.62054"
   height="429.40121"
   style="clip-rule:evenodd;fill-rule:evenodd;image-rendering:optimizeQuality;shape-rendering:geometricPrecision;text-rendering:geometricPrecision"
   id="svg68"
   sodipodi:docname="ChatGPT Image Aug 9, 2025, 02_31_31 PM.svg"
   xmlns:inkscape="http://www.inkscape.org/namespaces/inkscape"
   xmlns:sodipodi="http://sodipodi.sourceforge.net/DTD/sodipodi-0.dtd"
   xmlns="http://www.w3.org/2000/svg"
   xmlns:svg="http://www.w3.org/2000/svg">
  <defs
     id="defs68" />
  <sodipodi:namedview
     id="namedview68"
     pagecolor="#ffffff"
     bordercolor="#000000"
     borderopacity="0.25"
     inkscape:showpageshadow="2"
     inkscape:pageopacity="0.0"
     inkscape:pagecheckerboard="0"
     inkscape:deskcolor="#d1d1d1">
    <inkscape:page
       x="0"
       y="0"
       width="363.62054"
       height="429.40121"
       id="page2"
       margin="0"
       bleed="0" />
  </sodipodi:namedview>
  <g
     id="g23"
     transform="translate(-559.13519,-62.126133)">
    <path
       style="opacity:1"
       fill="#3b251d"
       d="m 780.5,90.5 c 25.302,0.7998 37.135,13.8 35.5,39 -1.833,6.669 -4.5,13.002 -8,19 -2,3.333 -2,6.667 0,10 6.26,4.256 11.927,9.256 17,15 5.135,8.239 7.968,17.239 8.5,27 7.795,2.292 12.128,7.459 13,15.5 -1.667,10.835 -4.5,21.335 -8.5,31.5 -3.222,3.559 -6.722,6.726 -10.5,9.5 4.301,12.915 5.135,26.082 2.5,39.5 -12.225,46.567 -25.225,92.9 -39,139 -12.657,21.911 -31.49,30.744 -56.5,26.5 -26.841,-6.377 -53.507,-13.377 -80,-21 -19.16,-9.47 -28.827,-24.97 -29,-46.5 0.021,-4.723 0.521,-9.389 1.5,-14 11.002,-40.676 22.002,-81.343 33,-122 3.998,-15.672 11.831,-29.006 23.5,-40 -3.043,-3.794 -4.71,-8.128 -5,-13 1.435,-10.743 4.268,-21.076 8.5,-31 5.624,-6.153 12.457,-8.153 20.5,-6 1.666,-7.152 5.666,-12.652 12,-16.5 7.828,-4.415 16.162,-7.415 25,-9 1.786,-0.785 3.286,-1.951 4.5,-3.5 2.391,-8.171 4.058,-16.505 5,-25 4.439,-12.952 13.272,-20.952 26.5,-24 z"
       id="path23" />
  </g>
  <g
     id="g24"
     transform="translate(-559.13519,-62.126133)">
    <path
       style="opacity:1"
       fill="#feedc7"
       d="m 711.5,442.5 c -17.436,-4.775 -35.436,-9.942 -54,-15.5 -15.711,-10.448 -21.211,-24.948 -16.5,-43.5 9.798,-36.454 19.631,-71.954 29.5,-106.5 -0.837,-1.011 -1.17,-2.178 -1,-3.5 2.286,-14.698 7.786,-28.031 16.5,-40 3.097,-3.77 6.764,-6.77 11,-9 38.115,10.372 76.281,20.538 114.5,30.5 5.773,7.487 8.439,15.987 8,25.5 -0.19,5.43 -1.024,10.763 -2.5,16 -11.998,43.329 -23.998,86.662 -36,130 -8.211,18.36 -22.377,26.193 -42.5,23.5 -9.245,-2.058 -18.245,-4.558 -27,-7.5 z"
       id="path24" />
  </g>
  <g
     id="g25"
     transform="translate(-559.13519,-62.126133)">
    <path
       style="opacity:1"
       fill="#38231c"
       d="m 670.5,382.5 c 11.747,2.353 23.413,5.186 35,8.5 4.523,5.74 3.356,9.907 -3.5,12.5 -10.852,-2.755 -21.686,-5.588 -32.5,-8.5 -4.166,-4.632 -3.833,-8.798 1,-12.5 z"
       id="path25" />
  </g>
  <g
     id="g26"
     transform="translate(-559.13519,-62.126133)">
    <path
       style="opacity:1"
       fill="#3a241d"
       d="m 678.5,346.5 c 11.878,1.385 23.544,3.885 35,7.5 5.636,3.203 6.302,7.203 2,12 -1.333,0.167 -2.667,0.333 -4,0.5 -10.359,-2.34 -20.693,-4.84 -31,-7.5 -1.431,-0.465 -2.597,-1.299 -3.5,-2.5 -0.963,-3.649 -0.463,-6.982 1.5,-10 z"
       id="path26" />
  </g>
  <g
     id="g27"
     transform="translate(-559.13519,-62.126133)">
    <path
       style="opacity:1"
       fill="#3b251d"
       d="m 689.5,308.5 c 11.328,2.718 22.661,5.551 34,8.5 6.5,2.668 7.5,6.668 3,12 -1.229,0.781 -2.562,1.281 -4,1.5 -11.333,-3.167 -22.667,-6.333 -34,-9.5 -4.166,-4.632 -3.833,-8.798 1,-12.5 z"
       id="path27" />
  </g>
  <g
     id="g28"
     transform="translate(-559.13519,-62.126133)">
    <path
       style="opacity:1"
       fill="#63a9e8"
       d="m 698.5,180.5 c 44.124,10.197 88.124,21.031 132,32.5 2.016,1.028 3.016,2.695 3,5 -1.911,7.143 -3.744,14.31 -5.5,21.5 -0.465,1.431 -1.299,2.597 -2.5,3.5 -2.667,0.667 -5.333,0.667 -8,0 -41.031,-10.453 -82.031,-21.12 -123,-32 -2.928,-3.257 -3.762,-7.091 -2.5,-11.5 1.295,-6.72 3.461,-13.053 6.5,-19 z"
       id="path28" />
  </g>
  <g
     id="g29"
     transform="translate(-559.13519,-62.126133)">
    <path
       style="opacity:1"
       fill="#fc9c1d"
       d="m 780.5,103.5 c 17.675,-0.157 25.175,8.509 22.5,26 -2.667,6 -5.333,12 -8,18 -1.652,13.865 3.848,23.698 16.5,29.5 5.298,5.388 7.965,11.888 8,19.5 -32.04,-7.51 -64.04,-15.343 -96,-23.5 -1.786,-0.196 -3.119,-1.029 -4,-2.5 2.251,-4.295 5.584,-7.461 10,-9.5 6.143,-2.603 12.477,-4.603 19,-6 7.254,-3.323 12.088,-8.823 14.5,-16.5 1.124,-5.603 1.79,-11.269 2,-17 1.839,-8.997 7.006,-14.997 15.5,-18 z"
       id="path29" />
  </g>
  <g
     id="g30"
     transform="translate(-559.13519,-62.126133)">
    <path
       style="opacity:1"
       fill="#efe7d1"
       d="m 669.5,273.5 c -0.17,1.322 0.163,2.489 1,3.5 -9.869,34.546 -19.702,70.046 -29.5,106.5 -4.711,18.552 0.789,33.052 16.5,43.5 18.564,5.558 36.564,10.725 54,15.5 -18.711,-3.428 -37.044,-8.261 -55,-14.5 -9.379,-5.575 -15.212,-13.742 -17.5,-24.5 -0.667,-6.667 -0.667,-13.333 0,-20 10.314,-36.755 20.481,-73.421 30.5,-110 z"
       id="path30" />
  </g>
  <rect
     style="fill:none"
     id="rect74"
     width="363.62057"
     height="429.40121"
     x="0"
     y="0" />
</svg>
